<svg id="Layer_1" data-name="Layer 1" xmlns="http://www.w3.org/2000/svg" viewBox="0 0 1920 1080"><defs><style>.cls-1{fill:#60adaf;}.cls-2{fill:#fff;}</style></defs><title>Artboard 1</title><path class="cls-1" d="M1360.42,159.46c12.09-.54,25.12-3.34,39.06-7.29,7-2,14.16-4.2,21.65-6.5s15.13-4.56,22.67-6.82c15.17-4.44,30.44-8.76,46-12.74s31.56-7.6,48.46-10.21c4.18-.7,8.56-1.18,12.88-1.71,2.18-.24,4.43-.4,6.64-.6,1.11-.09,2.21-.2,3.34-.27l3.41-.16a173.54,173.54,0,0,1,28,.74,181.77,181.77,0,0,1,27.38,5.29c8.63,2.33,16.59,5,24.18,7.58l22,7.63c7.18,2.47,14.26,4.77,21.38,7,14.22,4.44,28.57,8.37,43.1,11.93l-14.2,58.3c-15.66-3.84-31.31-8.13-46.76-13-7.71-2.42-15.41-4.92-22.93-7.52l-22.06-7.64c-7.11-2.44-13.92-4.68-20.3-6.4a122.19,122.19,0,0,0-18.34-3.59,114,114,0,0,0-18.58-.45l-2.41.11c-.81,0-1.65.14-2.47.2-1.66.16-3.29.27-5,.45-3.4.43-6.75.77-10.23,1.37-13.83,2.12-28.25,5.37-42.76,9.05s-29.17,7.84-43.84,12.13c-7.34,2.21-14.69,4.36-22,6.62s-15,4.64-23,6.89-16.32,4.4-25.08,6.08a186.56,186.56,0,0,1-27.39,3.4Z"/><path d="M1713.55,178.18a4.66,4.66,0,0,0-2,1.27,5,5,0,0,0-1.19,2.19,4.75,4.75,0,0,0,1.14,4.55,4.53,4.53,0,0,0,2.21,1.23,4.62,4.62,0,0,0,2.56,0,4.71,4.71,0,0,0,2-1.27,4.81,4.81,0,0,0,1.17-2.18,5,5,0,0,0,0-2.49,4.48,4.48,0,0,0-1.19-2.08,4.61,4.61,0,0,0-2.21-1.22A4.54,4.54,0,0,0,1713.55,178.18Z"/><path d="M1694.36,158.72l-9.54,32.5,4.45,1.28,9.34-32.57ZM1679,154l-1.27,4c2.8.89,5.59,1.78,8.4,2.62s5.61,1.73,8.43,2.52l1.18-4c-2.81-.78-5.59-1.67-8.38-2.5S1681.76,154.89,1679,154Z"/><path d="M1669.57,150.94l-10.68,32.15,4.38,1.45,10.51-32.21Zm-26.06,22.47-1.38,4,9,3.12q4.53,1.56,9.13,3.06l1.31-4C1655.51,177.57,1649.49,175.48,1643.51,173.41Zm6-13.12-1.32,3.79c5.53,1.92,11.09,3.83,16.67,5.66l1.25-3.8C1660.55,164.11,1655,162.21,1649.5,160.29Zm3.54-15-1.38,4c6,2.08,12,4.15,17.94,6.11l1.31-4C1665,149.44,1659,147.37,1653,145.3Z"/><path d="M1645,142.5c-6.72,7.78-13.44,15.55-20,23.45l1.55.53c-.2-5.1-.44-10.23-.74-15.35s-.68-10.24-1.14-15.4l-5-1.47c1.55,12.19,2.31,24.29,2.91,36.4l3,1c7.83-9.26,15.89-18.41,23.9-27.58Zm-21,1.05-1.19,3.82c5.66,1.75,11.2,3.68,16.75,5.59l1.31-3.78C1635.33,147.27,1629.76,145.32,1624,143.55Z"/><path d="M1609.8,131.66l-7.71,33c1.29.27,2.62.64,3.93,1l8.54-32.78C1613,132.44,1611.42,132,1609.8,131.66Zm-11,12.78a14.1,14.1,0,0,0-3-.23,10.38,10.38,0,0,0-2.66.54,8.07,8.07,0,0,0-4,2.84,9.9,9.9,0,0,0-1.75,4.89,10.49,10.49,0,0,0,.63,5,9.08,9.08,0,0,0,2.76,3.8,8.27,8.27,0,0,0,2.07,1.23,11.14,11.14,0,0,0,2.49.77c2.63.42,5.29,1.08,8,1.66l.94-3.89c-2.68-.59-5.38-1.26-8-1.69a5.43,5.43,0,0,1-3.74-2.26,6,6,0,0,1-.85-4.2,5.46,5.46,0,0,1,2.08-3.86,5.59,5.59,0,0,1,4.57-.77c2.91.48,5.78,1.19,8.66,1.82l.91-3.74C1604.89,145.68,1601.89,145,1598.83,144.44Zm-11.36-16.37q1.69,2.25,3.3,4.49c1.06,1.52,2.08,3.08,3.07,4.62s1.94,3.06,2.86,4.62,1.78,3.15,2.63,4.72c1.48-.25,3-.48,4.48-.64-1.43-3-3-5.76-4.65-8.65s-3.46-5.66-5.36-8.48C1591.7,128.42,1589.58,128.26,1587.47,128.07Z"/><path d="M1577.29,127.5l-.58,28.55c.37,1.79.73,3.58,1.06,5.37l2.76.12,1.77-33.83Zm-20.3,7c2,2.15,3.92,4.29,5.8,6.47s3.69,4.45,5.44,6.69,3.42,4.52,5,6.83,3.13,4.56,4.53,7l.71-6.07a173.22,173.22,0,0,0-21.38-27.07Zm-3.28-5.89,3.48,33.7,4.09-.35L1559,133.17l-1.85-4.89Z"/><path d="M1531,145.81a4.5,4.5,0,0,0-1.29,2,5,5,0,0,0-.13,2.48,5,5,0,0,0,1,2.24,4.91,4.91,0,0,0,1.91,1.41,4.32,4.32,0,0,0,2.46.22,4.41,4.41,0,0,0,2.25-1.09,4.74,4.74,0,0,0,1.32-2,5.19,5.19,0,0,0-.81-4.74,4.43,4.43,0,0,0-1.93-1.41,5,5,0,0,0-4.82.89Z"/><path d="M1504.28,137.56l7.85,32.95,4.26-1-7.59-33Zm-9.74,33.05,1.06,4.06c3-.81,6-1.56,9-2.29s6-1.52,8.94-2.18l-1-4.09c-3,.66-6,1.47-9,2.2S1497.54,169.8,1494.54,170.61Zm-2.33-14.23,1,3.87c2.81-.76,5.64-1.44,8.46-2.14s5.64-1.44,8.47-2.07l-.91-3.9c-2.86.64-5.69,1.39-8.53,2.08S1495,155.61,1492.21,156.38ZM1486.8,142l1.06,4.07q4.67-1.26,9.39-2.41c3.15-.76,6.26-1.6,9.43-2.3l-1-4.09c-3.2.71-6.32,1.55-9.49,2.32S1489.92,141.11,1486.8,142Z"/><path d="M1476.33,144.74l7.52,27.55,2.68,4.78,3-.8-8.78-32.72C1479.28,143.94,1477.8,144.33,1476.33,144.74Zm-17,11.17c9.16,6.94,18.25,14.06,27.16,21.16l-1-6c-8.93-7.11-18-14.25-27.21-21.21Zm-4.17-5.2,9.42,32.54,4.29-1.24-8-27.73-2.69-4.46Z"/><path d="M1436.84,157.05a9.69,9.69,0,0,0-2.36,4.73,12.12,12.12,0,0,0,.43,6l6.75,22.28,4.29-1.28-6.78-22.53a7.68,7.68,0,0,1-.3-3.61,5.08,5.08,0,0,1,1.34-2.66,6,6,0,0,1,2.67-1.56,6.21,6.21,0,0,1,5.94,1.18l2.21-3.76a9.88,9.88,0,0,0-4.33-2,10.74,10.74,0,0,0-5.22.36A10.1,10.1,0,0,0,1436.84,157.05Z"/><path d="M1404.33,166.82a16.87,16.87,0,0,0-4,5,18.73,18.73,0,0,0-2,6.28,18.36,18.36,0,0,0,.43,6.89,17.32,17.32,0,0,0,3,6.29,16.62,16.62,0,0,0,11.38,6.52,17,17,0,0,0,6.93-.64,16.6,16.6,0,0,0,6.07-3.21,15.82,15.82,0,0,0,4-5.12,17.18,17.18,0,0,0,1.77-6.34,18.21,18.21,0,0,0-.78-6.88,18,18,0,0,0-3.22-6.11,17.29,17.29,0,0,0-5.06-4.29,16.75,16.75,0,0,0-6.22-2,16.17,16.17,0,0,0-6.63.6A15.69,15.69,0,0,0,1404.33,166.82Zm12,.67a11.43,11.43,0,0,1,4.45,1.48,12.34,12.34,0,0,1,3.6,3.23,15,15,0,0,1,2.39,4.76,14.07,14.07,0,0,1,.49,6.9,11.56,11.56,0,0,1-2.78,5.64,11.79,11.79,0,0,1-5.61,3.43,12.7,12.7,0,0,1-5.09.5,11.48,11.48,0,0,1-4.54-1.53,12.52,12.52,0,0,1-3.61-3.29,14.06,14.06,0,0,1-2.24-4.78,14.31,14.31,0,0,1-.25-6.94,12.4,12.4,0,0,1,2.82-5.6,11.6,11.6,0,0,1,5.48-3.35A11.93,11.93,0,0,1,1416.31,167.49Z"/><path d="M1381.82,185.45a178.94,178.94,0,0,1-11,21.82c1.91-.22,3.84-.38,5.71-.66,1.59-3,3.1-6,4.49-9s2.72-6,4-9.06l-2.34.45c4.47,4.74,9.23,9.38,14.14,13.87,1.82-.43,3.65-.85,5.44-1.32-6.13-5.36-12.07-10.89-17.61-16.66Zm-3.2-13.42,2.88,16.54c1.5-.24,3-.56,4.47-.83l-3.26-16.48C1381.35,171.52,1380,171.81,1378.62,172Z"/><path class="cls-1" d="M1179.06-80.54c4.86,30.07,10.55,59.4,18.92,87.21s19.41,54,34.48,77c14.66,22.46,34.28,42,56.58,55.74a141.26,141.26,0,0,0,35,15.67,112.07,112.07,0,0,0,36.39,4.4l2.87,59.93a172.36,172.36,0,0,1-55.79-6.65,201.56,201.56,0,0,1-49.9-22.24,235,235,0,0,1-41.89-33,248.38,248.38,0,0,1-33.46-40.95A315.3,315.3,0,0,1,1157.8,71.2,407.42,407.42,0,0,1,1140.52,24C1131-7.82,1124.89-39.69,1119.83-71Z"/><path d="M1351.2,187.77a4.63,4.63,0,0,0-1.69,1.66,5,5,0,0,0-.71,2.38,4.7,4.7,0,0,0,.51,2.42,4.8,4.8,0,0,0,1.63,1.81,4.42,4.42,0,0,0,2.54.7,4.88,4.88,0,0,0,2.57-.64,4.58,4.58,0,0,0,1.71-1.73,4.73,4.73,0,0,0,.57-2.42,5,5,0,0,0-.65-2.39,4.81,4.81,0,0,0-1.67-1.74,4.54,4.54,0,0,0-2.41-.64A4.8,4.8,0,0,0,1351.2,187.77Z"/><path d="M1330.44,171.62l-6.72,33.2c1.65.38,3.33.64,5,.93l5.7-33.4C1333.09,172.12,1331.76,171.93,1330.44,171.62Zm-14.29-3.71-1.27,4a151.87,151.87,0,0,0,16,4.1l.8-4.12A148.49,148.49,0,0,1,1316.15,167.91Z"/><path d="M1307.55,164.87l-12.26,31.59,4.71,1.76,11.38-31.91Zm-28,19.94-1.9,3.74a186.86,186.86,0,0,0,19.12,8.47l1.48-3.93A183.72,183.72,0,0,1,1279.57,184.81Zm7.73-12.19-1.79,3.58a166.39,166.39,0,0,0,16.42,7.21l1.42-3.74A162.31,162.31,0,0,1,1287.3,172.62Zm5.57-14.34L1291,162a160.37,160.37,0,0,0,16.33,7.25l1.48-3.93A158.25,158.25,0,0,1,1292.87,158.28Z"/><path d="M1286,154.56a277.7,277.7,0,0,1-24.54,18.55l1.49,1q1.38-7.68,3.11-15.13c1.17-5,2.47-9.95,3.87-14.81-1.22-.88-2.41-1.81-3.62-2.71-1.76,5.74-3.38,11.63-4.77,17.52-.71,3-1.37,5.95-2,9s-1.17,6-1.69,9c1,.65,2,1.34,3,2a268.88,268.88,0,0,0,29-22.25C1288.59,156,1287.3,155.31,1286,154.56Zm-19.33-3.32-2.33,3.26c4.65,3.36,9.49,6.45,14.43,9.35l2-3.45C1276,157.56,1271.27,154.54,1266.71,151.24Z"/><path d="M1259.48,135.94l-21.79,25.95c1.24,1.07,2.52,2.1,3.8,3.12l21.22-26.41C1261.62,137.73,1260.53,136.86,1259.48,135.94Zm-15.3,6.23a13,13,0,0,0-4.86-2.89,9.31,9.31,0,0,0-5-.14,9.64,9.64,0,0,0-4.47,2.65,9,9,0,0,0-2.52,4.45,8.79,8.79,0,0,0,.44,5.13,12.42,12.42,0,0,0,3.54,5c1.25,1.11,2.47,2.25,3.75,3.33l3.83,3.24,2.55-3.08c-2.47-2.08-5-4.17-7.33-6.36a6.26,6.26,0,0,1-2.42-4.42,5.9,5.9,0,0,1,5.6-5.92,6.8,6.8,0,0,1,4.41,2c2.26,2.06,4.59,4,6.93,6l2.46-3-3.51-3C1246.45,144.23,1245.33,143.18,1244.18,142.17Zm1.39-19.09c-.49,3.43-1,7-1.28,10.45s-.62,7.09-.77,10.67c1.41.57,2.79,1.17,4.22,1.69.24-6.46.79-12.83,1.6-19.07C1248.05,125.61,1246.83,124.32,1245.57,123.08Z"/><path d="M1239.72,116.87,1218.53,136l-3,4.66c.76.86,1.57,1.67,2.35,2.51L1242.57,120C1241.6,118.94,1240.65,117.92,1239.72,116.87Zm-16.27-10a227.26,227.26,0,0,0-7.89,33.83l4.91-3.67a224.85,224.85,0,0,1,8.24-33.4Zm3.47-5.59-27.24,20.13,3,3.9,22.84-17.62,3.23-4.06Z"/><path d="M1202.67,89.24a4.52,4.52,0,0,0-2.3-.54,4.92,4.92,0,0,0-2.38.69,4.77,4.77,0,0,0-1.77,1.74,5,5,0,0,0-.67,2.32,4.11,4.11,0,0,0,.73,2.47,4.75,4.75,0,0,0,1.89,1.79,4.84,4.84,0,0,0,2.38.52,4.63,4.63,0,0,0,2.34-.76,4.94,4.94,0,0,0,1.73-1.79,4.43,4.43,0,0,0,.59-2.32,4.56,4.56,0,0,0-.75-2.39A4.91,4.91,0,0,0,1202.67,89.24Z"/><path d="M1203.74,62.3l-30.49,14.76c.65,1.45,1.4,2.87,2.13,4.29l30.27-15.22C1205,64.86,1204.32,63.61,1203.74,62.3Zm-34.17-3.7-3.88,1.62,2,4.59c.64,1.53,1.29,3.06,2,4.57l4.23,9.06,3.77-1.85-4.18-8.94c-.71-1.49-1.36-3-2-4.51Zm13.76-4.3-3.69,1.56c2.23,5.49,4.83,10.81,7.32,16.18l3.59-1.76C1188.09,65,1185.53,59.72,1183.33,54.3Zm13.53-7.36L1193,48.56l1.81,4.25c.59,1.42,1.19,2.84,1.86,4.22l3.9,8.36,3.77-1.85-3.85-8.24c-.66-1.36-1.24-2.76-1.83-4.16Z"/><path d="M1193.08,37.47,1166.4,47.66l-4.46,3.22,1.2,3.11,31.49-12.49Zm-12-15.45-2.53,3.49-2.45,3.5q-2.44,3.52-4.85,7.14c-3.26,4.82-6.3,9.71-9.32,14.73l5.91-1.64c6-9.92,12.56-19.44,19.27-28.55Zm5.1-4.24-32.27,10.31,1.43,4.49,27.38-9.07,4.39-2.82Z"/><path d="M1180,.18a9.58,9.58,0,0,0-4.62-2.39,12.56,12.56,0,0,0-6,.24L1146.91,4l1.2,4.52,22.69-6.2a7.8,7.8,0,0,1,3.6-.22A5.18,5.18,0,0,1,1177,3.42,5.64,5.64,0,0,1,1178.55,6a6.06,6.06,0,0,1,.13,3.07,6.29,6.29,0,0,1-1.4,2.74c1.24.72,2.48,1.42,3.75,2.11a10.55,10.55,0,0,0,2-4.23,10.12,10.12,0,0,0-.26-5A9.85,9.85,0,0,0,1180,.18Z"/><path d="M1143.7,176.47a100.35,100.35,0,0,1-21.85-3.54,95.83,95.83,0,0,1-20.93-8.71,110.61,110.61,0,0,1-17.24-12.16c-5-4.24-9.31-8.52-13.19-12.55s-7.34-7.87-10.58-11.34-6.56-7-9.85-10.39c-6.6-6.81-13.29-13.4-20.08-19.7s-13.73-12.25-20.78-17.83a257.17,257.17,0,0,0-21.59-15.32,189.66,189.66,0,0,0-22.35-12.05,143,143,0,0,0-22.92-8c-1.93-.45-3.85-1-5.79-1.31-1-.18-1.93-.4-2.9-.56l-2.9-.47c-1-.17-1.94-.29-2.91-.4l-2.91-.36-3-.23c-1-.08-2-.18-3-.21-8.19-.43-17.14-.25-26.94.13s-20.35.87-31.76.66a177.81,177.81,0,0,1-36.43-4.19,134.51,134.51,0,0,1-36.51-14.53A142.53,142.53,0,0,1,756.8-.3a142.56,142.56,0,0,1-23.06-31A134.32,134.32,0,0,1,720-68.1l63.31-13.43c2.73,13,9.81,25.82,19.76,35.93s22.6,17.5,35.54,20.49a112.89,112.89,0,0,0,22.95,2.5c8.54.17,18-.24,28.08-.62s21.16-.7,32.9-.08c1.44,0,3,.18,4.45.3l4.49.37,4.52.54c1.51.18,3,.37,4.5.63l4.49.72c1.49.25,3,.57,4.44.86,3,.56,5.88,1.29,8.81,2A208.52,208.52,0,0,1,991.72-6.18,253.58,253.58,0,0,1,1022,10.13a320.82,320.82,0,0,1,27.23,19.29c8.59,6.8,16.79,13.88,24.65,21.13s15.36,14.7,22.65,22.21c3.62,3.77,7.22,7.54,10.74,11.34s6.82,7.42,9.84,10.54,5.84,5.87,8.45,8.11a46.24,46.24,0,0,0,7.15,5.11,30.59,30.59,0,0,0,6.63,2.77,36.11,36.11,0,0,0,7.65,1.21Z"/><path class="cls-2" d="M784.33,2.68l21.45-29.59-1.93-1.38c-.65-.45-1.23-1-1.85-1.5L779-1.37c.87.7,1.69,1.45,2.6,2.1Zm35.36-16.36,1.83-4.14-2.24-1c-.74-.36-1.45-.77-2.18-1.14l-2.18-1.15-1.09-.56c-.36-.2-.7-.44-1.05-.65l-4.21-2.6-4-2.9-2.72,3.62,4.23,3.05,4.42,2.73c.37.23.73.47,1.1.68l1.15.6,2.3,1.2c.76.4,1.51.83,2.29,1.2ZM811.83-.22l1.81-3.92-1.23-.54c-.41-.19-.8-.41-1.2-.62l-2.39-1.26-2.4-1.26c-.8-.4-1.54-.93-2.31-1.39-1.53-1-3.08-1.88-4.59-2.87l-4.4-3.16-2.59,3.45,4.58,3.3c1.57,1,3.18,2,4.77,3,.81.48,1.58,1,2.42,1.45l2.49,1.31,2.5,1.32c.41.21.82.44,1.25.64Zm-4.79,16,1.82-4.14A115.13,115.13,0,0,1,785.33-2.19l-2.72,3.62A119.54,119.54,0,0,0,807,15.73Z"/><path class="cls-2" d="M818.91,20.26A142.52,142.52,0,0,0,830.65,7.48c1.76-2.17,3.49-4.53,5.11-6.8s3.16-4.6,4.64-7c-.63-.08-1.24-.24-1.86-.36.28,1.37.57,2.75.89,4.12s.67,2.7,1,4.05c.72,2.71,1.51,5.44,2.38,8.17,1.75,5.39,3.77,10.78,6,16.14,2.3.14,4.62.33,6.89.4-1.44-3.07-2.86-6.26-4.17-9.38s-2.55-6.25-3.7-9.46-2.2-6.34-3.16-9.5-1.77-6.43-2.49-9.61c-1.19-.14-2.3-.4-3.43-.62q-1.32,2.05-2.74,4.11l-1.43,2-1.45,2q-3,3.93-6.3,7.76-1.67,1.92-3.44,3.8c-1.16,1.2-2.35,2.4-3.58,3.58-2.45,2.36-5,4.69-7.72,7Zm28.44-2.86.4-4.3a114.85,114.85,0,0,1-22.88-4.21L823.65,13A119.64,119.64,0,0,0,847.35,17.4Z"/><path class="cls-2" d="M868.8,26.41l-.35-36.54c-1.83,0-3.58,0-5.38,0l-.42,36.54C864.7,26.41,866.78,26.45,868.8,26.41Zm9.79-16.12a17.69,17.69,0,0,0,7-1.54A10.57,10.57,0,0,0,890.16,5,9.22,9.22,0,0,0,891.6-.51a9,9,0,0,0-1.84-5.25A11,11,0,0,0,885-9.24a17,17,0,0,0-7-1.1c-3.84.13-7.59.21-11.28.23l0,4.31q5.52,0,11.21-.22a8.52,8.52,0,0,1,5.75,1.54,5.6,5.6,0,0,1,2.15,4.3,5.37,5.37,0,0,1-1.86,4.49,8.92,8.92,0,0,1-5.71,1.83q-5.78.19-11.5.23v4.16C870.69,10.51,874.64,10.42,878.59,10.29ZM895.4,25.6c-5.87-5.82-12-11.55-18-17.38-1.81.59-3.62,1.21-5.44,1.77,5.29,5.36,10.78,10.61,16.16,15.87Z"/><path class="cls-2" d="M906.75,25.35l-.22-30.8-1.88-5.73c-1.45,0-2.84.06-4.27.08l.83,36.53C903.08,25.38,904.93,25.35,906.75,25.35ZM930,19.86c-6.89-10.91-15.91-21.2-25.34-31L904-4.59c9.25,9.84,18,20.11,24.52,31Zm2.08,6.94,5.21-36.17c-2.17-.3-4.35-.54-6.52-.8l-3.24,31q.51,2.79,1,5.58C929.68,26.51,930.88,26.63,932.07,26.8Z"/><path class="cls-2" d="M964,19.63a5.55,5.55,0,0,0,2.6-1.06,4.8,4.8,0,0,0,1.63-2.19,4.4,4.4,0,0,0,.15-2.68A5.69,5.69,0,0,0,967,11.21a6.76,6.76,0,0,0-2.85-1.74,7.26,7.26,0,0,0-3.34-.31,5.44,5.44,0,0,0-2.65,1.12,4.47,4.47,0,0,0-1.49,2.27,4.63,4.63,0,0,0,0,2.71,5.66,5.66,0,0,0,1.47,2.42,6.77,6.77,0,0,0,2.75,1.59A7,7,0,0,0,964,19.63Z"/><path class="cls-2" d="M984.72,45,1002.22,13c-1.87-1-3.7-2-5.61-3L980,42.54C981.59,43.31,983.14,44.2,984.72,45Zm35.67-15.68,2.54-3.76A258.71,258.71,0,0,0,1000.44,12l-2.14,4A247.73,247.73,0,0,1,1020.39,29.35ZM1010.3,41.21l2.4-3.59c-6.36-4.23-12.91-8.18-19.66-11.79l-2,3.81C997.63,33.17,1004.05,37.06,1010.3,41.21Zm-7.57,14.84,2.53-3.75a223.49,223.49,0,0,0-19.91-12.07l-2.14,4A220.43,220.43,0,0,1,1002.73,56.05Z"/><path class="cls-2" d="M1013.22,63.52l18.48-24.64,2-5.69c-1.17-.86-2.32-1.74-3.51-2.57l-21.34,29.66C1010.3,61.34,1011.75,62.45,1013.22,63.52Zm22.55,9.73a328.66,328.66,0,0,0-2.11-40.06L1029.12,38a326,326,0,0,1,1.72,39.74Zm-2,7.08L1058,52.94c-1.51-1.35-3-2.68-4.6-4l-20.25,23.63-2.27,5.19C1031.83,78.6,1032.79,79.47,1033.77,80.33Z"/><path class="cls-2" d="M1051.84,95.92a11.65,11.65,0,0,0,6.14.22,11.83,11.83,0,0,0,5.65-3.28l17.8-17.71-4.25-4.24L1059.37,89a7.23,7.23,0,0,1-3.35,2.07,6,6,0,0,1-3.47-.13,8.5,8.5,0,0,1-3.24-2,9.43,9.43,0,0,1-2.23-3.2,7.7,7.7,0,0,1-.54-3.61c-1.7-.13-3.4-.23-5.1-.33a12.61,12.61,0,0,0,1,5.48,15.61,15.61,0,0,0,3.71,5.21A14.56,14.56,0,0,0,1051.84,95.92Z"/><path class="cls-2" d="M1081.8,127.26a21.84,21.84,0,0,0,8,2.38,17.27,17.27,0,0,0,7.67-1,15.33,15.33,0,0,0,6.17-4.28,18.33,18.33,0,0,0,3.77-6.53,21,21,0,0,0,1.06-7.28,20.44,20.44,0,0,0-1.58-7.31,23.34,23.34,0,0,0-4.53-6.93,25.36,25.36,0,0,0-6.91-5.35,21.22,21.22,0,0,0-7.72-2.34,18.42,18.42,0,0,0-7.53.78,16.54,16.54,0,0,0-6.42,3.93,16.91,16.91,0,0,0-4.12,6.26,19.15,19.15,0,0,0-1.21,7.46,21.58,21.58,0,0,0,1.72,7.71,23.81,23.81,0,0,0,4.65,7.14A24.81,24.81,0,0,0,1081.8,127.26Zm-7-13.93a15.08,15.08,0,0,1-1.2-5.56,13.16,13.16,0,0,1,1.06-5.39,14.25,14.25,0,0,1,3.31-4.73,13.09,13.09,0,0,1,6.66-3.54,13.75,13.75,0,0,1,7.42.66,17.86,17.86,0,0,1,6.86,4.75,18.07,18.07,0,0,1,3.43,5.2,14.26,14.26,0,0,1,.17,10.76,13.83,13.83,0,0,1-3.12,4.8,12.62,12.62,0,0,1-6.59,3.74,13.88,13.88,0,0,1-7.57-.61,17.59,17.59,0,0,1-7-4.81A17.8,17.8,0,0,1,1074.76,113.33Z"/><path class="cls-2" d="M1119.34,139.38a58.06,58.06,0,0,0,20.52-15.86c-1.51-.29-3-.65-4.43-1.07a56.31,56.31,0,0,1-17.15,11.93c.84.49,1.71.91,2.58,1.35a69.92,69.92,0,0,1-.35-21.09c-1.37-1-2.74-2.18-4.13-3.39-1.3,8.45-1.89,17.22-.41,26.36C1117.07,138.26,1118.2,138.82,1119.34,139.38Zm-5.26,14,7.67-16.41-2.54-1.26c-.84-.43-1.65-.92-2.48-1.37l-9.14,15.63c1.07.6,2.11,1.21,3.2,1.77Z"/><path d="M1541.78-31.34a244,244,0,0,0-104.68,4.91A254,254,0,0,0,1343,21c-1.69,1.41-3.45,2.73-5.08,4.2l-5,4.33L1328.14,34c-1.61,1.49-3.11,3.08-4.67,4.61s-3.06,3.13-4.55,4.73-3,3.18-4.41,4.85-2.88,3.24-4.29,5-2.84,3.4-4.24,5.22c-11.34,14.22-22.39,30.76-35.74,47.8a280,280,0,0,1-22.31,25.4c-1,1-2,2.08-3.13,3.1l-3.27,3c-2.11,2-4.57,4.14-7,6.11a154.8,154.8,0,0,1-15.31,11,145.73,145.73,0,0,1-34.78,16.18,117.26,117.26,0,0,1-40.73,5.4l3.32-64.63a52.7,52.7,0,0,0,18.27-2.6,80.83,80.83,0,0,0,19.32-9,90.25,90.25,0,0,0,9-6.45c1.44-1.17,2.73-2.29,4.26-3.73L1200,88c.74-.69,1.45-1.45,2.18-2.17a217.16,217.16,0,0,0,17.14-19.58c11.31-14.35,22.45-31,36-48.08,1.64-2.13,3.46-4.27,5.19-6.4s3.66-4.24,5.48-6.35,3.75-4.18,5.67-6.23,3.82-4.1,5.82-6.06,3.93-4,6-5.89l6.14-5.72,6.32-5.51c2.08-1.86,4.3-3.55,6.45-5.33A318.57,318.57,0,0,1,1420.5-89c10.72-2.83,21.6-5.12,32.57-6.87a312.39,312.39,0,0,1,33.2-3.37A300.26,300.26,0,0,1,1553.14-95Z"/><path class="cls-2" d="M1159.32,145.5a5,5,0,0,0,1.84-2.15,4.61,4.61,0,0,0,.35-2.69,4.86,4.86,0,0,0-1.12-2.44,6.13,6.13,0,0,0-2.19-1.58,5.85,5.85,0,0,0-2.9-.4,6,6,0,0,0-2.8.91,5.54,5.54,0,0,0-1.89,1.93,4.89,4.89,0,0,0-.69,2.6,4.53,4.53,0,0,0,.8,2.58,5.1,5.1,0,0,0,2.22,1.8,7.26,7.26,0,0,0,6.38-.56Z"/><path class="cls-2" d="M1195.46,150l-15.4-33.13-2.18,1-2.2.92,13.68,33.89,3.07-1.29Zm20.78-12-2.6-3.71a132.06,132.06,0,0,1-22,12.45l1.84,4.14A137,137,0,0,0,1216.24,138Z"/><path class="cls-2" d="M1227.82,128.93l-24-27.56c-1.21,1.07-2.47,2.09-3.73,3.1l22.65,28.68C1224.46,131.77,1226.17,130.39,1227.82,128.93Zm-6.49-38.6-3.37-3c-2.48,2.72-5,5.4-7.54,7.91-1.26,1.31-2.58,2.49-3.89,3.7l-2,1.82-1.92,1.65,2.92,3.46,2-1.72,2-1.87c1.35-1.25,2.71-2.48,4-3.82C1216.25,95.85,1218.8,93.11,1221.33,90.33ZM1231.69,102,1228.5,99a180.39,180.39,0,0,1-15.72,15.34l2.78,3.29A184.11,184.11,0,0,0,1231.69,102Zm13.68,9.52-3.38-3c-2.89,3.2-5.84,6.37-9,9.43-1.52,1.55-3.14,3-4.75,4.53l-2.42,2.23-2.55,2.21,2.92,3.46,2.64-2.28,2.48-2.29c1.65-1.53,3.31-3,4.86-4.65C1239.41,118,1242.42,114.73,1245.37,111.47Z"/><path class="cls-2" d="M1252.92,102.65c-4.71-10.48-9.87-20.63-15.22-30.59l-1.28,1.66c11,2.6,22.17,4.84,33.35,7l3.75-5.13c-13.28-2.44-26.61-4.89-39.69-7.76L1231.38,71c6.25,11.87,12.14,24,17.34,36.63C1250.16,106,1251.52,104.32,1252.92,102.65Zm9-25.15-3.48-2.56c-4.48,6.07-9,12.12-13.81,18l3.35,2.72C1252.81,89.7,1257.39,83.6,1261.89,77.5Z"/><path class="cls-2" d="M1280.68,65.77,1251.2,44.18l-3.45,4.73,29.54,21.51Zm-6.92-17.37A18.32,18.32,0,0,0,1277,42a10.9,10.9,0,0,0,.06-5.91,9.2,9.2,0,0,0-3.22-4.68,8.65,8.65,0,0,0-5.2-2,11.2,11.2,0,0,0-5.89,1.57,18.36,18.36,0,0,0-5.53,5l-3.63,4.89-3.56,4.86,3.48,2.54,3.49-4.76,3.56-4.78a8.93,8.93,0,0,1,5-3.68,5.48,5.48,0,0,1,4.71,1,5.42,5.42,0,0,1,2.24,4.35,9.26,9.26,0,0,1-2.24,5.64q-3.49,4.66-6.91,9.37l3.36,2.45Q1270.21,53.13,1273.76,48.4Zm22.32-2.78c-4.08.2-8.14.6-12.28,1s-8.26.89-12.39,1.43l-2,5.38c7.47-.93,14.92-1.76,22.28-2.32C1293.18,49.27,1294.6,47.39,1296.08,45.62Z"/><path class="cls-2" d="M1303.26,37.19l-23-20.46-5.52-2.41-2.88,3.31,27.85,23.65Zm11.59-21.33c-6.54-.81-13-1.24-19.81-1.57-3.33-.12-6.68-.16-10.08-.17-1.7,0-3.43,0-5.13,0l-5.11.17,4.44,4.93c6.74-.24,13.54-.08,20.09.2,3.32.17,6.63.43,9.87.71,1.63.14,3.23.28,4.85.46l4.85.6Zm6.77,2.76L1297-8.4l-4.56,4.24L1313.9,18.4l4.92,2.82Z"/><path class="cls-2" d="M646.34,155.21c18.88-2.53,38.55-8.67,58-16.63,4.87-2,9.74-4.11,14.61-6.31l3.66-1.68,3.71-1.79,7.44-3.57c4.94-2.41,9.93-4.72,14.84-7.2l14.64-7.6,7.33-3.8c2.43-1.28,4.81-2.67,7.22-4l14.41-8,3.6-2,3.54-2.12,7.07-4.24c4.71-2.85,9.47-5.62,14.14-8.52,18.59-11.78,37-23.85,54.74-36.91,4.44-3.25,8.91-6.45,13.32-9.74l13-10.12,6.52-5.06c2.19-1.66,4.27-3.48,6.4-5.21L927.34.16l3.19-2.62c1.05-.88,2.07-1.81,3.11-2.71l6.21-5.44,12.4-10.9,12.09-11.24c4-3.75,8.09-7.46,12-11.38a935.56,935.56,0,0,0,87.75-98.47l47.6,36.53a994.33,994.33,0,0,1-93.54,105C1014,3.07,1009.66,7,1005.37,11L992.5,23,979.29,34.6l-6.61,5.79c-1.11,1-2.2,2-3.32,2.89L966,46.07,952.4,57.26c-2.27,1.84-4.48,3.77-6.82,5.55l-6.94,5.38L924.74,79c-4.69,3.5-9.46,6.92-14.19,10.38-18.88,13.9-38.5,26.77-58.3,39.31-5,3.09-10,6.05-15.07,9.08l-7.54,4.51-3.78,2.26L822,146.66l-15.36,8.58c-2.57,1.41-5.1,2.88-7.7,4.25l-7.8,4.06-15.62,8.1c-5.23,2.64-10.55,5.11-15.83,7.68l-7.93,3.81-4,1.9-4.09,1.88q-8.24,3.72-16.68,7.2a364.62,364.62,0,0,1-35,12.38c-6,1.8-12.23,3.37-18.51,4.76s-12.7,2.56-19.26,3.42Z"/><path d="M955.5-4.95,978,20.38l5.07-4.44L960.39-9.24Zm1.29,18.47a24.72,24.72,0,0,0-5.3,6.23,12.41,12.41,0,0,0-1.92,6A7.55,7.55,0,0,0,956,33.33a12.38,12.38,0,0,0,6.33-.87,24.42,24.42,0,0,0,7-4.48l10.34-9.06-2.66-3-10.14,8.89c-2.18,1.91-4.21,3-6.07,3.17a4.7,4.7,0,0,1-4.36-1.56,4.76,4.76,0,0,1-.91-4.66,12.36,12.36,0,0,1,4-5.52l10-8.74-2.56-2.87Zm-23.57.68c4.29.06,8.61.13,12.93.14L959,14.16l3.71-5.26C954.94,9,947.25,9,939.57,9Z"/><path d="M923,22.6l18,22.19,4.9,2.86,3.65-3-21.5-26.19Zm-18,21.92q10.06,1,20.31,1.79l10.29.79,10.23.55-3.19-5.27-10.19-.6c-3.4-.22-6.84-.54-10.23-.82q-10.21-.87-20.24-1.88Zm-6.62-2.64,20.42,27,5.32-4.13-17.55-22.9-4.59-2.8Z"/><path d="M878,73.61a6,6,0,0,0-1,2.77,3.8,3.8,0,0,0,.66,2.48,3.7,3.7,0,0,0,2.09,1.47,6.42,6.42,0,0,0,3,.06,8.84,8.84,0,0,0,3.33-1.48,8.6,8.6,0,0,0,2.56-2.63,6.35,6.35,0,0,0,1-2.85,3.72,3.72,0,0,0-.67-2.47,3.81,3.81,0,0,0-2.12-1.45,5.82,5.82,0,0,0-3,0,10.18,10.18,0,0,0-3.28,1.56A8.92,8.92,0,0,0,878,73.61Z"/><path d="M841.54,81.58l18.36,28.47,5.67-3.64L847,78.08Zm-5.85,38.7,2.18,3.58,6-3.61c2-1.21,4-2.52,6-3.77l11.85-7.59-2.28-3.52-11.8,7.55c-2,1.25-3.92,2.55-5.92,3.75ZM829.93,107l2.08,3.42,5.52-3.32,5.43-3.47,10.84-6.95-2.18-3.36-10.8,6.92-5.4,3.46ZM820,95.09l2.18,3.59,5.93-3.55c2-1.17,3.89-2.47,5.84-3.69L845.57,84l-2.29-3.53L831.7,87.88c-1.94,1.22-3.84,2.51-5.82,3.68Z"/><path d="M806.82,103l14.41,24.65,4.41,3.57,4.06-2.43L812.39,99.63Zm-21.07,19q9.81,2.47,19.8,4.83l10.05,2.32c3.36.76,6.68,1.41,10,2.11l-2.36-5.7-10-2.12-10-2.37q-10-2.4-19.71-4.9Zm-6.14-3.61,16.1,29.81,5.88-3.29L787.7,119.56l-4.11-3.46Z"/><path d="M755.45,131.89a13,13,0,0,0-2.94,5.75,9.28,9.28,0,0,0,.87,6.09l10.28,20.88c2-1,4.06-1.91,6.06-3l-10.55-21a5.83,5.83,0,0,1-.62-3.66,6.61,6.61,0,0,1,1.64-3.3,11.91,11.91,0,0,1,3.49-2.64,12.87,12.87,0,0,1,4.25-1.38,8.86,8.86,0,0,1,3.9.34l2.68-4.75a14.5,14.5,0,0,0-6-.36,21.07,21.07,0,0,0-7,2.34A19.58,19.58,0,0,0,755.45,131.89Z"/><path d="M711.13,152.47a27,27,0,0,0-5.62,6.28,19.27,19.27,0,0,0-2.8,7,13.24,13.24,0,0,0,.57,7,12.65,12.65,0,0,0,4.18,5.75,17.73,17.73,0,0,0,7,3.27,25.86,25.86,0,0,0,8.94.41,36.05,36.05,0,0,0,18.38-8,26.18,26.18,0,0,0,5.59-6.79,18.29,18.29,0,0,0,2.36-7.29,12.94,12.94,0,0,0-1.26-6.95,13.2,13.2,0,0,0-4.61-5.31,18.44,18.44,0,0,0-7.07-2.8,26.26,26.26,0,0,0-8.59,0,33.91,33.91,0,0,0-9.12,2.63A33.26,33.26,0,0,0,711.13,152.47Zm16.65-2.84a19.93,19.93,0,0,1,6.15.11,12.35,12.35,0,0,1,5,2.19,10.82,10.82,0,0,1,3.41,4.18,10.57,10.57,0,0,1,.8,7.09,15,15,0,0,1-3.78,6.89,23.82,23.82,0,0,1-7.92,5.38,25.44,25.44,0,0,1-7.17,2,17.73,17.73,0,0,1-6.39-.3,12.89,12.89,0,0,1-5.06-2.43,10.23,10.23,0,0,1-3.14-4.35,10.88,10.88,0,0,1-.32-7.14,15.77,15.77,0,0,1,4-6.61,23.39,23.39,0,0,1,7.64-5.08A25.14,25.14,0,0,1,727.78,149.63Z"/><path d="M679.06,177.28a221.56,221.56,0,0,1-15,24.12c2.69-.49,5.35-1.06,8-1.65,4.25-6.6,8.09-13.22,11.55-20l-3.33,1c6.46,3.88,13.2,7.54,20.12,11,2.55-.89,5.12-1.74,7.64-2.68-8.63-4-17-8.3-25-12.94Zm-4.82-13,4.4,16.21c2.14-.56,4.25-1.21,6.38-1.81l-4.79-16.09C678.23,163.19,676.24,163.8,674.24,164.32Z"/><path class="cls-2" d="M246.51-168.88a289.87,289.87,0,0,1,70.21,28.82c5.51,3,10.73,6.38,16,9.65,2.62,1.67,5.15,3.45,7.73,5.17l3.85,2.6c1.28.87,2.5,1.8,3.75,2.7l7.47,5.45,7.26,5.66,3.62,2.84,3.51,2.93,7,5.89A529.81,529.81,0,0,1,428-46.07c15.73,17.85,30.21,36.29,44.22,54.73s27.36,36.93,40.77,55q10.07,13.58,20.2,26.76l5.1,6.56,5.14,6.48c3.43,4.35,6.85,8.56,10.22,12.55A178.58,178.58,0,0,0,574,136.9a90.9,90.9,0,0,0,10.29,7.63,76.64,76.64,0,0,0,10.7,5.59,74.48,74.48,0,0,0,11.62,3.79A83.78,83.78,0,0,0,619.09,156a121.36,121.36,0,0,0,27.25-.78l7.92,59.47a180.9,180.9,0,0,1-40.76,1,142.23,142.23,0,0,1-41.81-10.3,136.62,136.62,0,0,1-19.49-10.17,149.54,149.54,0,0,1-17.09-12.62,237.09,237.09,0,0,1-27.24-27.9c-4-4.7-7.71-9.32-11.32-13.88L491.1,134l-5.35-6.9q-10.67-13.81-20.89-27.66c-13.69-18.44-27-36.73-40.45-54.55S397.3,9.79,383-6.46a470.51,470.51,0,0,0-45.22-45.3l-6.05-5.06-3-2.54-3.09-2.41-6.18-4.83-6.31-4.59c-1.05-.76-2.09-1.56-3.16-2.28l-3.21-2.17c-2.15-1.43-4.27-2.93-6.44-4.3-4.38-2.69-8.7-5.51-13.18-7.93a229.71,229.71,0,0,0-55.53-22.9Z"/><path d="M634.63,184.55a6.13,6.13,0,0,0-2.32,1.83,3.71,3.71,0,0,0-.83,2.42,3.54,3.54,0,0,0,.95,2.38,6.08,6.08,0,0,0,2.53,1.64,8.93,8.93,0,0,0,3.73.48,9.61,9.61,0,0,0,3.67-.93,5.9,5.9,0,0,0,2.34-2,3.6,3.6,0,0,0,.65-2.47,3.72,3.72,0,0,0-1.12-2.31,6.27,6.27,0,0,0-2.56-1.51,9.27,9.27,0,0,0-3.57-.37A9.42,9.42,0,0,0,634.63,184.55Z"/><path d="M603.5,168.16l-7.85,33c2.49.65,5,1.08,7.52,1.57l5.91-33.35C607.22,169,605.33,168.65,603.5,168.16Zm-19.27-6.92L582.36,165a97.06,97.06,0,0,0,22,7.69l.89-4.1A92.83,92.83,0,0,1,584.23,161.24Z"/><path d="M573.4,154.84l-19.18,27.92c1,.74,2.11,1.45,3.21,2.14s2.15,1.41,3.28,2l17.45-29c-.81-.45-1.59-1-2.39-1.5S574.18,155.4,573.4,154.84Zm-38.27,6.4-3,3c3.59,3.56,7.35,7.06,11.35,10.41a147.31,147.31,0,0,0,12.73,9.51l2.31-3.5a144.74,144.74,0,0,1-12.35-9.23C542.32,168.15,538.65,164.73,535.13,161.24Zm11.52-8.78-2.79,2.86A139.88,139.88,0,0,0,564.26,172l2.21-3.34A136.88,136.88,0,0,1,546.65,152.46ZM555.84,140l-3,3c3.1,3.09,6.27,6.07,9.56,8.81a117.72,117.72,0,0,0,10.15,7.61l2.32-3.51a113.1,113.1,0,0,1-9.78-7.32C562,145.89,558.88,143,555.84,140Z"/><path d="M547.91,131.57c-10.58,2.49-21.48,4.38-32.44,6.05l1.6,1.95c3.81-10.38,7.92-20.6,12.06-30.73-1.47-1.84-2.91-3.71-4.36-5.57-2.45,6.07-4.85,12.13-7.2,18.24s-4.71,12.26-6.93,18.46l3.14,3.83a339.35,339.35,0,0,0,38.58-7.4C550.86,134.84,549.38,133.2,547.91,131.57Zm-23.36-16.18-3.14,2.48c5.29,6.69,10.63,13.31,16.19,19.65l3-2.64C535.12,128.63,529.82,122.06,524.55,115.39Z"/><path d="M516.38,92.38l-26.94,20.53,4.06,5.32,26.85-20.66Zm-18.55-.08a24.56,24.56,0,0,0-5.8-5.75,12.15,12.15,0,0,0-5.85-2.27,7.48,7.48,0,0,0-5.15,1.5,7.22,7.22,0,0,0-2.84,4.44,12.48,12.48,0,0,0,.45,6.31,24.12,24.12,0,0,0,3.9,7.26l8.24,10.88,3.18-2.43-8.09-10.68a11.45,11.45,0,0,1-2.69-6.26A4.79,4.79,0,0,1,485.06,91a4.7,4.7,0,0,1,4.68-.59,12.17,12.17,0,0,1,5.18,4.39l8,10.55,3.06-2.34Zm.77-23.64c-.56,8.59-1.1,17.2-1.57,25.82l5,4.08q.71-11.64,1.55-23.22Z"/><path d="M490.65,57.89l-23,16.93-3.11,4.75,2.76,3.74,27.26-20.12ZM469,39l-4.49,40.62L470,76.63,474.52,36Zm2.71-6.67L444.55,52.49l3.92,5.27L471.66,40.6,474.52,36Z"/><path d="M439.29,12.09a5.94,5.94,0,0,0-2.83-.82,3.8,3.8,0,0,0-2.45.8,3.67,3.67,0,0,0-1.34,2.16,6.15,6.15,0,0,0,.09,2.94,8.92,8.92,0,0,0,1.64,3.19,9.31,9.31,0,0,0,2.7,2.42,6.17,6.17,0,0,0,2.84.87,3.66,3.66,0,0,0,2.43-.76,3.77,3.77,0,0,0,1.39-2.16,5.89,5.89,0,0,0-.1-3A9.12,9.12,0,0,0,442,14.51,9.26,9.26,0,0,0,439.29,12.09Z"/><path d="M427.76-24,401.81-2.25c1.39,1.62,2.76,3.29,4.12,5l26.13-21.56C430.64-20.59,429.22-22.32,427.76-24Zm-39.13.26-3.11,2.82,2.25,2.46L390-16l4.43,5c2.95,3.37,5.81,6.83,8.72,10.24l3.23-2.69c-2.93-3.43-5.81-6.91-8.78-10.3l-4.45-5.08-2.23-2.53Zm12-8.19-3,2.68c2.85,3.15,5.62,6.37,8.44,9.55L414.3-10l3.08-2.57-8.3-9.78C406.24-25.55,403.45-28.79,400.59-32Zm9.78-12-3.11,2.83c6.41,7,12.57,14.21,18.67,21.45l3.22-2.69C423-29.67,416.83-36.9,410.37-44Z"/><path class="cls-1" d="M973.1,120.83A72.88,72.88,0,0,0,959,118.41c-2.85-.26-5.89-.47-9.16-.66l-10-.54q-19.93-1-39.91-1.51-39.93-.95-79.88.34c-13.27.41-26.65,1.1-40.43,1.69s-27.84,1.07-42.23,1-29-.79-43.35-2.18-28.74-3.38-43-6a521.53,521.53,0,0,1-162-58.8,509.21,509.21,0,0,1-133.81-109l45.36-39.28a449,449,0,0,0,118,96,461.71,461.71,0,0,0,143.26,52Q680.71,55,699.71,56.8c12.67,1.22,25.34,1.74,38.08,1.91,25.59.17,52.46-1.76,80.37-2.64q41.6-1.32,83.23-.35,20.8.49,41.59,1.57l10.39.57c3.52.2,7.26.44,11.17.8a130.86,130.86,0,0,1,26,4.76Z"/><path d="M447.68,7.78l19.94-27.39c-2-1.5-4.13-2.94-6.12-4.5L441.11,3C443.26,4.62,445.49,6.17,447.68,7.78ZM489.61.48l2.25-3.55c-4.42-2.91-8.92-5.71-13.25-8.77-2.17-1.51-4.37-3-6.53-4.52L465.66-21l-2.49,3.38,6.48,4.71c2.18,1.55,4.4,3,6.59,4.56C480.61-5.29,485.15-2.46,489.61.48ZM479.94,11.3l2.16-3.36-6.38-4.15c-2.13-1.38-4.19-2.86-6.28-4.29s-4.2-2.85-6.25-4.34L457-9.32l-2.37,3.23,6.21,4.51c2.06,1.51,4.2,2.92,6.3,4.38s4.19,2.93,6.34,4.32Zm-5.89,14.46,2.25-3.55c-4.77-3.13-9.61-6.15-14.27-9.44-2.35-1.62-4.71-3.22-7-4.86l-6.93-5-2.48,3.38,7,5.08c2.35,1.66,4.73,3.27,7.1,4.91C464.36,19.56,469.24,22.6,474.05,25.76Z"/><path d="M487.13,33.78q8.07-3.62,15.87-7.36c5.22-2.52,10.41-5.18,15.48-7.84L516,17.21c1,11.49,2.39,22.89,4.13,34.52l8,3.83c-2.54-13.69-4.49-27.37-5.89-40.91L517.34,12c-6.11,3.15-12.24,6.07-18.52,9-3.14,1.44-6.32,2.9-9.49,4.26s-6.37,2.71-9.6,4C482.2,30.77,484.63,32.33,487.13,33.78ZM521,43.58,522.8,40c-4.58-2.35-9.19-4.66-13.69-7.18l-6.77-3.71-6.69-3.88-2,3.46,6.74,3.9,6.83,3.75C511.73,38.88,516.38,41.2,521,43.58Z"/><path d="M543.67,62.7l13.51-31.07-6.94-3.12-14,30.85Zm18.39-8.29a34.87,34.87,0,0,0,9.44,2.39,14,14,0,0,0,7.09-.94A6.75,6.75,0,0,0,582,46.51a15.8,15.8,0,0,0-4.58-5.31,31.36,31.36,0,0,0-8.23-4.55c-2.4-1-4.78-2-7.17-3s-4.79-2-7.14-3.07l-1.61,3.67c2.33,1.08,4.72,2,7.08,3l7.12,3c3.09,1.2,5.26,2.63,6.53,4.27s1.62,3.24,1,4.76a4.52,4.52,0,0,1-4,2.84c-2.06.27-4.69-.21-7.86-1.44l-7.24-3c-2.41-1-4.84-2-7.21-3.1l-1.56,3.53c2.44,1.14,4.94,2.14,7.43,3.19S559.56,53.41,562.06,54.41ZM578,76.14c-2.9-4-5.77-8-8.53-12S564,56.07,561.39,52l-7.48-1.49,3.45,5.56c1.15,1.87,2.33,3.72,3.54,5.53,2.4,3.65,4.85,7.34,7.37,11Z"/><path d="M593.69,81.37l8.57-27.24-.57-5.76-5.06-1.68L585.94,78.84C588.52,79.68,591.09,80.58,593.69,81.37Zm34.78,3.25q-3.63-4.47-7.13-8.91c-2.33-3-4.6-6-6.84-9l-3.31-4.52L608,57.54c-2.13-3.07-4.23-6.08-6.27-9.17l-2.79,5.5a448.89,448.89,0,0,0,27,36.46Zm3,7,7.6-33c-2.47-.54-4.92-1.2-7.38-1.79l-6.94,28,1.15,5.47C627.79,90.77,629.64,91.28,631.51,91.66Z"/><path d="M676.51,86a7.09,7.09,0,0,0,3.07-1.33,3.38,3.38,0,0,0,1.35-2.25,3.41,3.41,0,0,0-.72-2.51,7.55,7.55,0,0,0-2.57-2.11,12.22,12.22,0,0,0-4-1.22,14.14,14.14,0,0,0-4.27,0,7.42,7.42,0,0,0-3.11,1.25,3.33,3.33,0,0,0-1.41,2.19,3.45,3.45,0,0,0,.64,2.55A7.14,7.14,0,0,0,668,84.81a12,12,0,0,0,4.17,1.28A13.11,13.11,0,0,0,676.51,86Z"/><path d="M717.73,103.59l1.6-33.84-7.57-.42-2.18,33.81Zm31-29.18-.06-4.2c-10.71.17-21.24,0-31.8-.59l-.22,4.19C727.35,74.38,738,74.58,748.77,74.41Zm-2.16,14.38,0-4c-5.08,0-10.16,0-15.22-.08s-10.14-.22-15.2-.57l-.21,4c5.1.35,10.22.41,15.33.57S741.5,88.84,746.61,88.79Zm3,15.29-.06-4.2c-11.33.19-22.79,0-34.19-.63l-.22,4.2C726.63,104.07,738.21,104.27,749.6,104.08Z"/><path d="M768.6,103.58l-1-28.53-2.51-5.24-5.44.17,1,33.86ZM802,96c-12.31-8.72-24.82-17.34-36.89-26.18l-.79,6.13c12.1,8.87,24.6,17.51,36.86,26.25Zm4.68,6L805.25,68.1l-8,.34,1.28,28.83,2.56,4.92Z"/><path d="M839.92,100.09a15,15,0,0,0,6.19-4,8.37,8.37,0,0,0,2.22-5.88L848,67l-8,.12.42,23.52a5.14,5.14,0,0,1-1.23,3.56,8,8,0,0,1-3.51,2.24,16.66,16.66,0,0,1-5.15.85,18.24,18.24,0,0,1-5.32-.59,10.94,10.94,0,0,1-4-2l-5.4,3.16a18.39,18.39,0,0,0,6.3,2.89,30.93,30.93,0,0,0,8.8.91A28.29,28.29,0,0,0,839.92,100.09Z"/><path d="M899.09,100.25a34.55,34.55,0,0,0,9.34-3.49,20.54,20.54,0,0,0,6.4-5.37,11.34,11.34,0,0,0,.46-13.61A20.28,20.28,0,0,0,909.11,72a34.34,34.34,0,0,0-9.37-4,48.23,48.23,0,0,0-11.68-1.53,47.59,47.59,0,0,0-11.72,1.19,33.14,33.14,0,0,0-9.44,3.68,19.73,19.73,0,0,0-6.26,5.54,11.52,11.52,0,0,0-2.21,6.83,11.7,11.7,0,0,0,2.26,6.77,20.46,20.46,0,0,0,6.24,5.58,34.81,34.81,0,0,0,9.31,3.79,48.43,48.43,0,0,0,11.47,1.47A47.31,47.31,0,0,0,899.09,100.25Zm-19.94-4.34a23.57,23.57,0,0,1-6.66-2.76A13.34,13.34,0,0,1,868.15,89a9.48,9.48,0,0,1-1.56-5.24A9.58,9.58,0,0,1,869.35,77a17.94,17.94,0,0,1,7.55-4.55A32.91,32.91,0,0,1,888,70.92,35.76,35.76,0,0,1,896.63,72a23.16,23.16,0,0,1,6.72,2.86,14.2,14.2,0,0,1,4.37,4.24,9.07,9.07,0,0,1,1.45,5.25,9.62,9.62,0,0,1-3,6.68,18.65,18.65,0,0,1-7.6,4.44,33.14,33.14,0,0,1-11,1.49A36,36,0,0,1,879.15,95.91Z"/><path d="M946.41,89.18c8.07-6.26,16-12.63,25.82-18-3.44-.51-6.79-.87-10-1.15-7.21,4.89-13.5,10.11-20,15.23l4.12.22q-8.79-8.72-17.8-17.33l-9.27-.36q11.25,10.45,22.18,21.1Zm.74,13.83.94-16.77-7.9-.42-.85,16.77Z"/><path class="cls-1" d="M712.57-58.71a234.76,234.76,0,0,0-4.06,35.35,243.27,243.27,0,0,0,1.92,35.76c.41,3,1,5.91,1.45,8.87.26,1.47.45,3,.76,4.42l1,4.39,1,4.38.48,2.2c.18.73.41,1.44.6,2.16l2.44,8.66c.35,1.45.93,2.84,1.39,4.27L721,56l1.45,4.25,1.69,4.16,1.67,4.16c.57,1.38,1.08,2.79,1.76,4.13l3.8,8.11c.6,1.38,1.35,2.67,2,4l2.12,3.94,2.11,3.94L740,96.48l2.33,3.81,1.17,1.9.58,1,.64.91,5.09,7.31c.43.61.83,1.24,1.28,1.83l1.38,1.74,2.74,3.49,2.74,3.49c.93,1.16,1.94,2.27,2.91,3.41,3.87,4.55,8.06,8.87,12.31,13.14,17.24,16.92,37.32,31.61,59.09,44.18,5.42,3.17,11,6.15,16.6,9.09s11.29,5.71,16.83,8.15,11.08,4.72,16.53,6.6a153.81,153.81,0,0,0,16.11,4.6,102,102,0,0,0,15.26,2.07,66.25,66.25,0,0,0,13.9-.79c1.08-.22,2.19-.36,3.25-.61s2.1-.58,3.15-.84a11,11,0,0,0,1.53-.5l1.51-.53a25.29,25.29,0,0,0,3-1.21,60.25,60.25,0,0,0,11.58-6.79,84.16,84.16,0,0,0,19.81-22.11,109.52,109.52,0,0,0,7.36-14c.49-1.2,1.07-2.48,1.51-3.62s.85-2.26,1.23-3.4c.76-2.29,1.4-4.61,1.92-6.92a57.15,57.15,0,0,0,1.48-13.17,28.35,28.35,0,0,0-1.62-9.7,11.52,11.52,0,0,0-3.13-4.73,19,19,0,0,0-6.92-3.4l17.43-57.41a82.79,82.79,0,0,1,14.56,5.87,75.3,75.3,0,0,1,14.3,9.67,69.67,69.67,0,0,1,11.81,13.28,73.42,73.42,0,0,1,8,15.22,88,88,0,0,1,5.59,30.22,116.56,116.56,0,0,1-2.92,27.28c-1,4.33-2.16,8.56-3.54,12.72-.69,2.09-1.43,4.15-2.23,6.2s-1.6,3.85-2.4,5.78a168.89,168.89,0,0,1-11.61,22.06,148.51,148.51,0,0,1-15.28,20.3,134.71,134.71,0,0,1-19.26,17.81A120.32,120.32,0,0,1,964,263.61c-2.13.91-4.23,1.88-6.46,2.61l-3.3,1.15c-1.1.37-2.2.78-3.32,1.06q-3.34.92-6.71,1.78c-2.24.52-4.5.89-6.75,1.31a126.28,126.28,0,0,1-26.73,1.56,161.07,161.07,0,0,1-25.12-3.36,210.2,210.2,0,0,1-23.09-6.55c-7.39-2.56-14.45-5.46-21.33-8.51s-13.44-6.35-19.88-9.6-12.85-6.81-19.16-10.5c-25.29-14.62-49.54-32.17-71.13-53.35-5.34-5.36-10.61-10.82-15.56-16.62-1.24-1.45-2.51-2.86-3.71-4.35l-3.56-4.51-3.56-4.53-1.77-2.27c-.58-.76-1.11-1.56-1.66-2.34l-6.56-9.43-.81-1.18-.76-1.21-1.5-2.44-3-4.89c-1-1.63-2-3.25-3-4.89l-2.72-5-2.71-5c-.9-1.69-1.84-3.35-2.61-5.09L672.7,97c-.84-1.71-1.52-3.49-2.24-5.25l-2.14-5.29-2.12-5.3-1.86-5.39-1.84-5.4c-.59-1.81-1.29-3.58-1.76-5.42l-3.09-11c-.25-.91-.53-1.82-.75-2.75l-.63-2.78L655,42.92l-1.23-5.57c-.39-1.86-.66-3.74-1-5.61-.61-3.75-1.3-7.5-1.82-11.26a300.59,300.59,0,0,1-2.44-45.6,294.63,294.63,0,0,1,5.24-45.59Z"/><path d="M997.32,101.93a9.36,9.36,0,0,0,1.69.4,6.39,6.39,0,0,0,1.56.1,3.65,3.65,0,0,0,2.46-1,3,3,0,0,0,.8-2.51,6.34,6.34,0,0,0-.38-1.67,9.65,9.65,0,0,0-1-1.76,9.9,9.9,0,0,0-1.51-1.79,19.38,19.38,0,0,0-2.1-1.64,14.45,14.45,0,0,0-2.36-1.23,8.75,8.75,0,0,0-2.24-.67,7.33,7.33,0,0,0-3.67.15,3.18,3.18,0,0,0-2,1.76,3.47,3.47,0,0,0,0,2.63,8.39,8.39,0,0,0,1.81,2.8c.44.44.92.9,1.44,1.34a21.36,21.36,0,0,0,1.78,1.25,13.08,13.08,0,0,0,1.87,1.09A14.84,14.84,0,0,0,997.32,101.93Z"/><path d="M999.33,138l33.87-.8a88.91,88.91,0,0,0-.82-10.06L998.84,132A53.49,53.49,0,0,1,999.33,138Zm-3.52,23.42,4,1.23a77.81,77.81,0,0,0,3.62-26.87l-4.19.25A73.92,73.92,0,0,1,995.81,161.43Z"/><path d="M990.11,175.68l30.56,14.63c.63-1.35,1.3-2.69,1.9-4.06l1.74-4.13L993,169.28l-1.36,3.23C991.13,173.58,990.61,174.62,990.11,175.68Zm8.72,41.43,3.25,2.65,3-3.73,2.79-3.84c.95-1.27,1.82-2.59,2.67-3.91s1.75-2.63,2.56-4c1.59-2.71,3.24-5.39,4.66-8.18.72-1.39,1.5-2.75,2.15-4.17l2-4.23-3.82-1.75-2,4.13c-.64,1.37-1.4,2.7-2.1,4-1.37,2.72-3,5.32-4.52,8-.8,1.3-1.66,2.57-2.49,3.86s-1.67,2.56-2.59,3.79l-2.71,3.73Zm-9.65-10.92,3.15,2.47c.85-1,1.62-2.08,2.39-3.15L997,202.3,999.2,199c.73-1.1,1.45-2.2,2.1-3.35l2-3.4c.66-1.14,1.25-2.32,1.87-3.48,1.28-2.3,2.36-4.7,3.49-7.07L1005,180c-1.1,2.31-2.15,4.64-3.39,6.88-.61,1.12-1.18,2.27-1.82,3.37l-1.94,3.3c-.63,1.12-1.32,2.19-2,3.25l-2.1,3.21-2.24,3.11C990.75,204.18,990,205.21,989.18,206.19Zm-13.57-7.58,3.24,2.67,2.38-2.95,2.23-3.07,1.12-1.54,1-1.6c.69-1.07,1.4-2.12,2.08-3.2a129.38,129.38,0,0,0,7.19-13.52l-3.82-1.74a126.41,126.41,0,0,1-7,13.06c-.65,1-1.34,2.05-2,3.08l-1,1.54L980,192.82l-2.15,3Z"/><path d="M966.86,207.94a99.66,99.66,0,0,1,1.57,34.52l2.88-1.76a88.84,88.84,0,0,1-29.9-17c-1.1.35-2.16.81-3.28,1.1l-3.38.89q1.68,1.76,3.49,3.46c1.21,1.13,2.49,2.3,3.76,3.31s2.62,2.08,4,3.09,2.83,2,4.28,2.91,3,1.8,4.5,2.67,3.16,1.73,4.75,2.46,3.26,1.5,5,2.21,3.43,1.41,5.15,2c2-1.2,4-2.34,5.85-3.64a105.81,105.81,0,0,0-3.55-41.35c-.78.93-1.68,1.72-2.51,2.59S967.77,207.17,966.86,207.94ZM946.35,230.1l1.48,3.72,3.36-1.45c.56-.25,1.13-.47,1.67-.74l1.63-.85,3.25-1.7,3.14-1.91,1.57-.95,1.5-1.06,3-2.11,2.88-2.29,1.45-1.15c.48-.39.92-.82,1.38-1.22l-2.64-3c-.44.39-.86.81-1.32,1.18l-1.38,1.1-2.77,2.19-2.88,2-1.44,1-1.49.91-3,1.82-3.09,1.61-1.55.81c-.52.26-1.06.46-1.59.7Z"/><path d="M921.17,227.67l1.72,33.84,2.36-.11c.78,0,1.57-.15,2.36-.23l4.73-.52-4.62-33.56-3.26.35c-.54.05-1.08.15-1.63.17Zm-12.68,14.5a47.52,47.52,0,0,0-9.73,0,16.29,16.29,0,0,0-7,2.1,6.8,6.8,0,0,0-3.35,4.39,6.35,6.35,0,0,0,1.29,5.35,16.83,16.83,0,0,0,6.32,4.64A33.88,33.88,0,0,0,907,261.24c3.1.32,6.29.36,9.45.43,1.58.07,3.19,0,4.79-.09s3.2-.12,4.81-.24l-.31-4c-1.53.12-3.05.15-4.57.22s-3,.17-4.55.1c-3-.08-6.05-.08-9-.4a22.11,22.11,0,0,1-5-.87,12.83,12.83,0,0,1-3.5-1.71c-1.84-1.33-2.58-2.81-2.31-4.43s1.48-2.89,3.53-3.63a12.45,12.45,0,0,1,3.59-.64,33.87,33.87,0,0,1,4.69,0c2.69.29,5.41.27,8.12.35,1.36.07,2.72,0,4.08-.09s2.72-.09,4.08-.19l-.3-3.84A105.77,105.77,0,0,1,908.49,242.17Zm-18.09-18a116.73,116.73,0,0,0,19.46,20.06c1.27-.12,2.54-.35,3.8-.58l3.76-.67a103.52,103.52,0,0,1-18.29-16.92c-1.46-.29-2.91-.52-4.36-.85Z"/><path d="M876.38,219.88l-9.51,26.92c.2,1.95.4,3.93.65,5.88l5.8,1.87,9.95-32.38-3.44-1.11-1.73-.56Zm-31.76-7.06c1.58,3.42,3.22,6.71,4.92,10.11s3.48,6.71,5.38,10a207.65,207.65,0,0,0,12.6,19.75l3-5.45a202.72,202.72,0,0,1-12.21-19.52c-3.65-6.56-6.91-13.24-10-19.92Zm-1.1-7.44L828.1,235.54c2.45,1.23,4.87,2.48,7.36,3.69l12.67-25.92.18-5.52Z"/><path d="M800.69,196.39a7.81,7.81,0,0,0-3.34-.12,3.44,3.44,0,0,0-2.21,1.42,3.33,3.33,0,0,0-.45,2.58,7.19,7.19,0,0,0,1.47,3,12.76,12.76,0,0,0,3.28,2.89,12,12,0,0,0,4,1.78,7.64,7.64,0,0,0,3.42.06,3.35,3.35,0,0,0,2.15-1.49,3.48,3.48,0,0,0,.36-2.62,7.23,7.23,0,0,0-1.56-3,14.51,14.51,0,0,0-3.27-2.82A12.93,12.93,0,0,0,800.69,196.39Z"/><path d="M776.24,161.08l-22.07,25.71c2.15,1.79,4.26,3.64,6.44,5.38L782,165.89C780,164.33,778.16,162.68,776.24,161.08Zm-42.5.31-3.07,2.86a293.81,293.81,0,0,0,25.55,24.27l2.71-3.21A288.54,288.54,0,0,1,733.74,161.39Zm12.11-8-2.91,2.75A281.48,281.48,0,0,0,765.6,177.4l2.58-3.06A278.66,278.66,0,0,1,745.85,153.34Zm9.35-12.46-3.08,2.85a264,264,0,0,0,23.24,22.1l2.71-3.21A258.5,258.5,0,0,1,755.2,140.88Z"/><path d="M743.85,127.59,721.5,145.36c-.88,1.76-1.74,3.53-2.6,5.31l1.86,2.35c.61.78,1.29,1.51,1.93,2.27l25.8-21.95C746.82,131.5,745.39,129.51,743.85,127.59ZM720.8,104.88a214.4,214.4,0,0,0-2.09,22.4l-.2,5.78c0,1.94-.12,3.93,0,5.84q.12,5.78.43,11.77l5.4-3c-.16-3.94-.25-7.81-.29-11.6l0-2.84c0-.94.06-1.92.09-2.87l.27-5.7.34-5.58c.13-1.85.24-3.66.49-5.53q.66-5.57,1.46-10.9ZM724,98.14,694.5,114.75c1.29,2.53,2.86,4.89,4.32,7.32l24.67-14.95,3.15-4.48-1.36-2.22C724.83,99.68,724.45,98.9,724,98.14Z"/><path d="M709.69,70a16.89,16.89,0,0,0-2.8-2.54,15.9,15.9,0,0,0-3-1.66,8.48,8.48,0,0,0-6.23-.13l-21.93,7.81c.47,1.34.89,2.69,1.4,4l1.58,3.93,21.9-8.59a5.24,5.24,0,0,1,3.77-.12,7.78,7.78,0,0,1,3.3,2.36,17.63,17.63,0,0,1,2.57,4.32,16.85,16.85,0,0,1,1.5,4.92,10.84,10.84,0,0,1-.27,4.37c1.65,1.18,3.25,2.37,5,3.44a20.73,20.73,0,0,0,.17-6.7,27.33,27.33,0,0,0-2.49-8A26,26,0,0,0,709.69,70Z"/><path d="M695.29,15.65a33.11,33.11,0,0,0-4.7-8.34,23.5,23.5,0,0,0-6.14-5.53A11.62,11.62,0,0,0,677.56,0a11.27,11.27,0,0,0-6.69,2.82A18.39,18.39,0,0,0,666,9.89a35.69,35.69,0,0,0-2.54,10.35,54.19,54.19,0,0,0,.74,12.44,38.78,38.78,0,0,0,1.63,6.24,48.82,48.82,0,0,0,2.27,5.6,30.1,30.1,0,0,0,2.77,4.81,31,31,0,0,0,3.29,3.87,19.43,19.43,0,0,0,7.08,4.71,10.92,10.92,0,0,0,7.13.19A12.2,12.2,0,0,0,694.23,54,20.92,20.92,0,0,0,698,46.6,28.9,28.9,0,0,0,698.9,42c.18-1.58.43-3.28.47-5a38.49,38.49,0,0,0-.16-5.35c-.16-1.82-.54-3.66-.81-5.59A41.45,41.45,0,0,0,695.29,15.65Zm-.44,19.57a23.13,23.13,0,0,1-1.23,7,13.56,13.56,0,0,1-2.86,5.16,9.68,9.68,0,0,1-4.65,2.87,9.36,9.36,0,0,1-7.25-.92,15.12,15.12,0,0,1-3.43-2.58,22.8,22.8,0,0,1-2.89-3.87,31.18,31.18,0,0,1-2.39-5,29.85,29.85,0,0,1-1.66-6,39.58,39.58,0,0,1-.56-9.08,27.29,27.29,0,0,1,.53-3.92,21.38,21.38,0,0,1,1.18-3.44,14.2,14.2,0,0,1,3.58-5.06,8.79,8.79,0,0,1,5-2.16,9.88,9.88,0,0,1,7,2,19.19,19.19,0,0,1,5.46,6.65A30.52,30.52,0,0,1,694.11,27c.21,1.46.46,2.85.6,4.21A29.62,29.62,0,0,1,694.85,35.22Z"/><path d="M420.69,131.6a173.11,173.11,0,0,0,17.18,4.53,89.3,89.3,0,0,0,15.93,1.92,43.56,43.56,0,0,0,13.2-1.54,26.25,26.25,0,0,0,9.46-5,29.29,29.29,0,0,0,3.86-4.14,44.81,44.81,0,0,0,3.62-5.6,97.89,97.89,0,0,0,6.36-15c1-2.85,1.93-5.79,2.91-8.92l3-9.52,6-19.08L549.85-83.5l41.27,12.89L543.42,82.1l-6,19.09-3,9.56c-1,3.24-2.11,6.65-3.29,10.1a140.2,140.2,0,0,1-9.35,21.73,89.62,89.62,0,0,1-7.25,11.15,73.09,73.09,0,0,1-9.8,10.42l-2.85,2.35c-1,.74-2,1.43-3,2.13l-3.06,2.06-3.21,1.78c-1.08.57-2.16,1.18-3.25,1.7l-3.34,1.41c-1.12.44-2.23,1-3.36,1.31L479.31,178A86.51,86.51,0,0,1,453,181.29a131.92,131.92,0,0,1-23.72-2.79,217.44,217.44,0,0,1-21.49-5.63Z"/><path class="cls-2" d="M537.52-8.82l16.82,15.4.43-1.38-22.57,3-1.26,4,26.79-3.86.83-2.67L538.75-12.76Zm.35,17.38,2.76.86,4.48-14.36-2.75-.86Z"/><path class="cls-2" d="M528.51,20l23.3,7.28L553,23.6l-23.3-7.28Zm8.16,9.5a12,12,0,0,0-.59,4.78A7.09,7.09,0,0,0,537.45,38a6.13,6.13,0,0,0,3.14,2.13,6,6,0,0,0,3.71,0,7.2,7.2,0,0,0,3.26-2.24,11.52,11.52,0,0,0,2.27-4.26l2.36-7.55-2.75-.86-2.32,7.44A5.69,5.69,0,0,1,544.86,36a3.71,3.71,0,0,1-3.19.41,3.59,3.59,0,0,1-2.41-2.18,6.1,6.1,0,0,1,.11-4l2.31-7.39L539,22Zm-13.38,7.22,15-7.51,0-3.82-13.54,6.65Z"/><path class="cls-2" d="M520.94,44.26l19.64,6.13,4,0,.81-2.59-23.31-7.28Zm-.67,17,24.32-10.85-4.05-1.78L516.19,59.44Zm-4.89.76,23.31,7.28,1.15-3.7L520,59.42l-3.81,0Z"/><path class="cls-2" d="M518.57,84.87a3.73,3.73,0,0,0,.78,1.71,3.16,3.16,0,0,0,1.5,1,3.07,3.07,0,0,0,1.8,0,3.67,3.67,0,0,0,1.61-1,4.39,4.39,0,0,0,1.08-1.85,4.47,4.47,0,0,0,.17-2.15,3.75,3.75,0,0,0-.77-1.73,3,3,0,0,0-1.49-1,3.1,3.1,0,0,0-1.81,0,3.6,3.6,0,0,0-1.62,1,5.06,5.06,0,0,0-1.25,4Z"/><path class="cls-2" d="M503.05,101.52l23.29,7.33,1.16-3.72-23.3-7.28Zm15.39,21.16,2.83,1.08c2.08-5.49,3.81-10.89,5.44-16.11l-2.88-.91C522.2,112,520.48,117.29,518.44,122.68Zm-9.26-4.76,2.7,1c1.78-4.79,3.33-9.61,4.83-14.41l-2.75-.86C512.46,108.44,510.93,113.22,509.18,117.92Zm-10.8-2.67,2.83,1.08c1.84-4.84,3.47-9.89,5.09-15.07l-2.89-.9C501.8,105.52,500.19,110.51,498.38,115.25Z"/><path class="cls-2" d="M495.14,122.86l18.59,8.84c1.33.17,2.67.32,4,.46.45-.94.84-1.87,1.24-2.8l-22.42-9.65C496.12,120.79,495.64,121.83,495.14,122.86Zm-3.75,14.53a56.78,56.78,0,0,0,13.05-1.31,98.07,98.07,0,0,0,13.31-3.92L514,129.83c-8.72,3-17.59,5-25.77,4.43C489.29,135.29,490.34,136.34,491.39,137.39Zm-4.55-1.47,18.3,16.16c1.12-1.21,2.06-2.49,3.08-3.74l-16.54-12.59c-1.17-.48-2.32-1-3.46-1.49C487.76,134.82,487.34,135.42,486.84,135.92Z"/><path class="cls-2" d="M477.36,144.24a9.3,9.3,0,0,0-1,3.61,9.14,9.14,0,0,0,.78,4.25l6.58,15.43,2.27-1c.74-.38,1.48-.78,2.21-1.17l-7.91-15a5.56,5.56,0,0,1-.7-2.52,3.79,3.79,0,0,1,.53-2.06,5.17,5.17,0,0,1,1.47-1.6,4.54,4.54,0,0,1,2.09-.79,5,5,0,0,1,2.23.14,27,27,0,0,0,.29-3.12,9.36,9.36,0,0,0-1.65-.18,8.23,8.23,0,0,0-1.65.1,8.54,8.54,0,0,0-3.15,1.27,9.86,9.86,0,0,0-1.35,1.2A5.41,5.41,0,0,0,477.36,144.24Z"/><path class="cls-2" d="M454.13,149.17a16.6,16.6,0,0,0-4.2,2.53,15.41,15.41,0,0,0-3.19,3.78,11.47,11.47,0,0,0-1.58,4.75,10.42,10.42,0,0,0,.65,5,10.87,10.87,0,0,0,3,4.25,13.5,13.5,0,0,0,5.08,2.87,18.77,18.77,0,0,0,3.17.71,17.55,17.55,0,0,0,3.49.07,17.91,17.91,0,0,0,3.48-.5,21.55,21.55,0,0,0,3.17-1.14,13.9,13.9,0,0,0,4.86-3.64,11.72,11.72,0,0,0,1.53-2.24,10.82,10.82,0,0,0,.86-2.49,9.76,9.76,0,0,0-.3-5,12.54,12.54,0,0,0-2.42-4.37A15.34,15.34,0,0,0,470,152a15.66,15.66,0,0,0-2-1.5,16.72,16.72,0,0,0-4.33-1.95,11,11,0,0,0-2.34-.41,18.44,18.44,0,0,0-2.48-.07,19.54,19.54,0,0,0-2.45.37A12,12,0,0,0,454.13,149.17Zm8.81,2.43a10.31,10.31,0,0,1,3.21,1.52,9.54,9.54,0,0,1,2.52,2.51,10.28,10.28,0,0,1,1.57,3.53,8,8,0,0,1-.35,5.05,8.68,8.68,0,0,1-1.39,2.22,9.37,9.37,0,0,1-2.11,1.75,13.43,13.43,0,0,1-2.76,1.27,13.88,13.88,0,0,1-3.26.54,17.72,17.72,0,0,1-2.53,0,12.22,12.22,0,0,1-2.26-.5,10.1,10.1,0,0,1-3.62-2,8.56,8.56,0,0,1-2.2-3.11,8.34,8.34,0,0,1-.58-3.78,9.39,9.39,0,0,1,1.62-4.79,9.92,9.92,0,0,1,1.6-1.81,11.12,11.12,0,0,1,2-1.43,9.18,9.18,0,0,1,2.28-.9,13,13,0,0,1,2.56-.44,10.36,10.36,0,0,1,1.94.06A11.79,11.79,0,0,1,462.94,151.6Z"/><path class="cls-2" d="M431.39,155.63c-2.35,1.94-4.79,3.89-7.27,5.72s-5,3.68-7.62,5.44c1.49.43,3,.86,4.52,1.24,4.14-3,8.16-6.12,12-9.36-.67-.12-1.33-.27-2-.43,1.06,2.3,2.2,4.48,3.4,6.74s2.48,4.45,3.84,6.66l2.46.37,2.51.28c-1.84-2.6-3.5-5.31-5.07-8s-3-5.45-4.33-8.15C433,156,432.18,155.82,431.39,155.63Zm1.45-9.84-2.65,11.8c1.26.3,2.53.58,3.81.81l2.36-11.87C435.19,146.33,434,146.06,432.84,145.79Z"/><path d="M145.74,65.68l4.35,3.26.14,0,.22-.07.12,0,.64-.18,3.19-.87c4.14-1,8.06-1.72,11.91-2.31a199.76,199.76,0,0,1,22.44-1.89c3.71-.1,7.42-.13,11.22,0,.95,0,1.9,0,2.87.1s1.92.08,2.92.16,1.94.12,3,.23l3.33.35,3.57.56c1.25.23,2.56.53,3.83.82s2.73.75,4.13,1.22l2.16.81,1.07.42,1.09.5c.73.34,1.45.69,2.17,1s1.41.79,2.11,1.2a47.33,47.33,0,0,1,4,2.64,55.3,55.3,0,0,1,6.21,5.51c3.4,3.52,5.65,6.37,7.78,8.93l3.19,3.87c1.22,1.48,2.36,2.93,3.51,4.39,4.47,5.78,8.41,11.35,12.14,16.32A123.67,123.67,0,0,0,280,125.65l1.35,1.33,1.26,1.16c.87.74,1.73,1.51,2.64,2.17a38.89,38.89,0,0,0,5.5,3.56,33,33,0,0,0,5.38,2.32,21.15,21.15,0,0,0,4.68.88,11.4,11.4,0,0,0,3.73-.28,20.33,20.33,0,0,0,4.64-1.78c2.08-1,4.56-2.47,7.63-4.23a114.21,114.21,0,0,1,10.95-5.66,78.25,78.25,0,0,1,26.68-6.26,109.44,109.44,0,0,1,24.84,1.53,196.94,196.94,0,0,1,21.86,5.15q5.16,1.5,10.06,3l9.5,3-12.92,41.27-9.56-3c-3.09-1-6.11-1.9-9.08-2.76a153.64,153.64,0,0,0-17-4.05,67.23,67.23,0,0,0-15-1A35.06,35.06,0,0,0,345,164.76a74.81,74.81,0,0,0-6.78,3.56c-2.72,1.55-6,3.49-9.88,5.43a63.89,63.89,0,0,1-14.06,5.16,54.39,54.39,0,0,1-16.13,1.32,64.4,64.4,0,0,1-14.93-2.76,76.37,76.37,0,0,1-13-5.51A81.8,81.8,0,0,1,259,164.67c-1.78-1.32-3.44-2.75-5.09-4.18l-2.42-2.22-2.21-2.18a166.6,166.6,0,0,1-14.8-17.53c-4.27-5.69-8-11-11.72-15.77-.91-1.16-1.83-2.33-2.74-3.43l-3.17-3.84c-2.11-2.57-4.06-4.91-5.3-6.18a11.25,11.25,0,0,0-1.24-1.14c-.09,0-.15-.14-.19-.12s0,0-.05,0l-.09,0,0,0-.09,0a.64.64,0,0,1-.19-.08c-.18-.05-.43-.11-.66-.19s-.67-.14-1.05-.23-.91-.13-1.37-.21l-1.65-.17c-.57-.06-1.31-.09-2-.15s-1.38-.07-2.07-.11-1.4-.06-2.12-.07c-2.86-.09-5.83-.07-8.78,0a156.59,156.59,0,0,0-17.39,1.45c-2.74.42-5.38.91-7.72,1.48l-1.63.45-.21.05-.1,0-.25.08-1.07.37-2.15.72c-1.36.5-3,1-4.6,1.41a36.62,36.62,0,0,1-4.74,1,29,29,0,0,1-9.29-.08,25.21,25.21,0,0,1-4.49-1.26l-1.05-.4-1-.49c-.68-.31-1.34-.72-2-1.09a19.55,19.55,0,0,1-2-1.29,20.21,20.21,0,0,1-1.9-1.53c-1.28-1-2.45-2.27-3.66-3.45l-.43-.43-.27-.24-.56-.48-1.1-.95c-.39-.27-.77-.55-1.15-.83Z"/><path class="cls-2" d="M405.85,148.25a3.61,3.61,0,0,0-1.71.77,3.16,3.16,0,0,0-1,1.5,3.07,3.07,0,0,0,0,1.8,3.86,3.86,0,0,0,1,1.62,4.25,4.25,0,0,0,1.83,1.07,4.45,4.45,0,0,0,2.14.19,3.73,3.73,0,0,0,1.74-.76,3,3,0,0,0,1-1.49,3.1,3.1,0,0,0,0-1.81,3.51,3.51,0,0,0-1-1.62,4.49,4.49,0,0,0-1.86-1.08A4.54,4.54,0,0,0,405.85,148.25Z"/><path class="cls-2" d="M388.34,133l-5.75,23.73,3.5.87,6.23-23.6Zm-15-2.87-.4,3c2.74.33,5.4.85,8.07,1.33s5.28,1.12,7.85,1.79l.73-2.93c-2.6-.69-5.3-1.24-8-1.82S376.18,130.46,373.36,130.12Z"/><path class="cls-2" d="M363.7,129.27l-.95,24.4c1.07,0,2.17.11,3.27.2l2-24.32C366.62,129.42,365.18,129.28,363.7,129.27Zm-13.47,22.19.55,3a55.35,55.35,0,0,1,13-.75l.17-3A58.53,58.53,0,0,0,350.23,151.46Zm-.73-10.39.46,2.85a70.45,70.45,0,0,1,14.39-.7l.16-2.88A73.16,73.16,0,0,0,349.5,141.07Zm-3.38-10.6.56,3A76.82,76.82,0,0,1,365,132.33l.16-3A79.49,79.49,0,0,0,346.12,130.47Z"/><path class="cls-2" d="M337.64,132.58a80.5,80.5,0,0,0-1.39,11.56,91.62,91.62,0,0,0,.37,11.27l1.13-.58c-5.57-4.92-12.06-9.11-18.19-13.53-1.18.67-2.33,1.33-3.43,1.92,6.94,5.5,14.9,10.21,21.71,15.8.7-.36,1.41-.74,2.07-1.06-.18-2.18-.33-4.34-.35-6.55s.09-4.37.29-6.62a71.24,71.24,0,0,1,2.56-13.54Zm-14.16,12.84,1.43,2.5c4.34-2.47,8.89-5.13,13.92-6.81l-1-2.72c-1.29.5-2.6,1-3.87,1.5s-2.5,1.15-3.7,1.76C327.9,142.88,325.65,144.17,323.48,145.42Z"/><path class="cls-2" d="M310.1,146.06l8.61,22.84c1.59-.6,3.1-1.25,4.53-1.92l-10.38-22.1C311.91,145.33,311,145.71,310.1,146.06Zm-2.55,11.68a18.56,18.56,0,0,0-4.61,1.32,11,11,0,0,0-1.82,1.07,7.26,7.26,0,0,0-1.45,1.31,6.18,6.18,0,0,0-1.46,3.55,4.9,4.9,0,0,0,1.09,3.62,7.21,7.21,0,0,0,1.66,1.46,9.72,9.72,0,0,0,2.39,1,14.67,14.67,0,0,0,6.58.23,49.49,49.49,0,0,0,10.33-3l-1.09-2.66a47.62,47.62,0,0,1-9.58,2.82,9.41,9.41,0,0,1-2.91.11,4.87,4.87,0,0,1-2.16-.67,3.29,3.29,0,0,1-1.76-2.86,3.59,3.59,0,0,1,1.41-3,6.86,6.86,0,0,1,1.71-1,15,15,0,0,1,2.32-.6,38.09,38.09,0,0,0,7.88-2.33L315,155.54A37.08,37.08,0,0,1,307.55,157.74Zm-9.3-10.37A31.07,31.07,0,0,0,308.54,159l1.71-.92,1.62-1a28.78,28.78,0,0,1-10.17-9.4A29,29,0,0,1,298.25,147.37Z"/><path class="cls-2" d="M292.57,146.07l-6.35,19.57c0,1.37.11,2.73.23,4.09,1.13.31,2.25.65,3.41.91l5.52-23.78C294.45,146.62,293.51,146.38,292.57,146.07Zm-14.23-2.32a56.91,56.91,0,0,0,2.26,12.94,52.75,52.75,0,0,0,5.85,13c.62-1.35,1.23-2.7,1.82-4.06A49.8,49.8,0,0,1,283,153a55.54,55.54,0,0,1-1.79-12.6Zm1.05-4.7L264.8,158.62c1.22.95,2.54,1.8,3.81,2.69L280,143.93q.57-1.8,1.2-3.57C280.62,139.92,280,139.53,279.39,139.05Z"/><path class="cls-2" d="M258.88,132.6a3.7,3.7,0,0,0-1.85-.29,3.21,3.21,0,0,0-1.68.7,2.92,2.92,0,0,0-1,1.49,3.83,3.83,0,0,0-.06,1.91,4.52,4.52,0,0,0,1,2,4.59,4.59,0,0,0,1.79,1.34A3.83,3.83,0,0,0,259,140a2.92,2.92,0,0,0,1.62-.77,3.15,3.15,0,0,0,.94-1.56,3.63,3.63,0,0,0,0-1.88,4.87,4.87,0,0,0-1-1.87A4.63,4.63,0,0,0,258.88,132.6Z"/><path class="cls-2" d="M254.44,110.47l-19.68,14.45,2.29,3.11,19.69-14.43Zm-26,1.27-2.33,1.93c3.14,3.79,6.2,7.91,9.37,12.24l2.44-1.79C234.76,119.78,231.66,115.62,228.45,111.74Zm8.7-5.7-2.24,1.82c3.12,3.81,6.07,7.81,9,11.85l2.33-1.71C243.31,114,240.32,109.92,237.15,106Zm7.63-8.12-2.33,1.94c3.68,4.44,7.05,9,10.29,13.4l2.44-1.79C251.93,107,248.53,102.45,244.78,97.92Z"/><path class="cls-2" d="M238.86,90.78l-15.68,13.33-2.24,3.29,1.67,2,18.84-15.53Zm-18.71-9.19a26.89,26.89,0,0,1,2.39,6.75,28.43,28.43,0,0,1,.42,3.32,31.72,31.72,0,0,1,0,3.24,110.85,110.85,0,0,1-2,12.5l3.68-2.45a83.15,83.15,0,0,0,1.65-13,27.13,27.13,0,0,0-.82-7,33,33,0,0,0-1.22-3.63,38,38,0,0,0-1.75-3.58C221.67,79,220.9,80.29,220.15,81.59Zm-1.29-5.13L211.8,99.83c.17.06.36.09.52.15l.43.17.44.16.37.19,8.91-18.79c.06-1.3.06-2.66,0-4A38.38,38.38,0,0,0,218.86,76.46Z"/><path class="cls-2" d="M199.59,74.64a7.44,7.44,0,0,0-3.31,2.73,7.35,7.35,0,0,0-1.19,4.21l0,16.78c1.19,0,2.38,0,3.56,0l.43-17a4.61,4.61,0,0,1,.72-2.54,4.07,4.07,0,0,1,1.89-1.5A6.46,6.46,0,0,1,204.4,77a7.12,7.12,0,0,1,2.76.72,5.49,5.49,0,0,1,2,1.73c1.06-.62,2.2-1.15,3.37-1.69a8.93,8.93,0,0,0-3.28-2.7,11.19,11.19,0,0,0-2.27-.85,14.89,14.89,0,0,0-2.54-.38A10.51,10.51,0,0,0,199.59,74.64Z"/><path class="cls-2" d="M168.59,76.33a14.32,14.32,0,0,0-4.43,3.44,11.7,11.7,0,0,0-2.41,4.56,10.27,10.27,0,0,0-.05,5,12.14,12.14,0,0,0,2.09,4.58,14.15,14.15,0,0,0,3.57,3.38,14,14,0,0,0,4.54,2,12.87,12.87,0,0,0,2.55.38,15.31,15.31,0,0,0,2.7-.06,15.76,15.76,0,0,0,5.14-1.4,14.5,14.5,0,0,0,4.13-2.92,13.54,13.54,0,0,0,2.77-4.11,11.65,11.65,0,0,0,.93-4.93,10.82,10.82,0,0,0-1.24-4.86,11.62,11.62,0,0,0-3.31-3.9,14.11,14.11,0,0,0-5-2.42,16.86,16.86,0,0,0-6.11-.44,20.09,20.09,0,0,0-3.07.59A18.14,18.14,0,0,0,168.59,76.33Zm10.71,1.74a10.2,10.2,0,0,1,3.55,1.71,8.28,8.28,0,0,1,2.35,2.87,9,9,0,0,1,1,3.74,9.28,9.28,0,0,1-1.07,4.91,9.63,9.63,0,0,1-3.31,3.52,11.21,11.21,0,0,1-5,1.64,11.83,11.83,0,0,1-4-.22,9.82,9.82,0,0,1-3.32-1.5,9.68,9.68,0,0,1-2.54-2.6,9.39,9.39,0,0,1-1.4-3.54,8.48,8.48,0,0,1,.5-5,9.11,9.11,0,0,1,3.29-3.89,11.13,11.13,0,0,1,2.51-1.26,15,15,0,0,1,3-.64A12.58,12.58,0,0,1,179.3,78.07Z"/><path class="cls-2" d="M147.84,91.05a16.83,16.83,0,0,1-1.63,2.11c-.29.32-.59.64-.89.93l-.95.81a15.62,15.62,0,0,1-4,2.19A24.91,24.91,0,0,1,131,98.76c.86.83,1.76,1.59,2.64,2.36l1.35,1c.46.33.92.62,1.38.93a25.48,25.48,0,0,0,3.82-1.25,17.17,17.17,0,0,0,3.68-2,25,25,0,0,0,5.9-6.53c-.7.16-1.38.36-2.08.49a24,24,0,0,0,5.2,4.73c1,.69,2.24,1.36,3.45,2s2.45,1.26,3.8,1.85l.39-.13.22-.06.43-.11.87-.24c.57-.17,1.17-.31,1.8-.45-1.07-1-2.11-2-3.2-2.92-.54-.48-1.1-1-1.68-1.43-.74-.38-1.46-.78-2.15-1.19a37.35,37.35,0,0,1-3.79-2.56,19.07,19.07,0,0,1-3-2.82C149.35,90.67,148.6,90.9,147.84,91.05Zm.74-10.68-1.73,13.1a19.14,19.14,0,0,0,2-.41c.65-.15,1.29-.33,1.93-.54L150.4,79.9A11.59,11.59,0,0,1,148.58,80.37Z"/><path class="cls-1" d="M215.74,199.74a39.93,39.93,0,0,0,7.95-4.93c.61-.45,1.14-1,1.74-1.47s1.17-1.18,1.77-1.74l.91-.87.86-1c.57-.68,1.19-1.26,1.75-2a85,85,0,0,0,6.71-9.73c2.18-3.66,4.3-7.8,6.44-12.16s4.28-9.17,6.51-14.11,4.65-10.23,7.28-15.63,5.61-11.1,9-16.58l2.49-4.13c.83-1.38,1.77-2.66,2.65-4l2.7-4,1.35-2c.46-.65.95-1.26,1.42-1.9a232.2,232.2,0,0,1,24.56-28.09,322.67,322.67,0,0,1,27-23.69c18.47-14.52,37.44-27,55.81-38.91S421-10.66,438.6-22.7,473.48-47,490.07-59.84c33.17-25.64,63.78-53.56,89.17-85.09L626-107.3a509.13,509.13,0,0,1-47.21,50.76c-16.69,15.74-34.14,30.36-52,44.16-35.67,27.58-72.89,51.93-109.45,75.6-9.05,5.88-18,11.69-26.55,17.59S373.91,92.71,366,98.9A261.88,261.88,0,0,0,344,118.22a172.57,172.57,0,0,0-18.39,21c-.34.45-.71.9-1,1.36l-.94,1.4-1.9,2.79c-.62.93-1.32,1.84-1.88,2.8l-1.71,2.86a135.19,135.19,0,0,0-6.57,12.07c-2.13,4.39-4.28,9.07-6.49,14s-4.59,10.13-7.18,15.52-5.48,11-8.87,16.67a142.83,142.83,0,0,1-11.85,17.08c-1.11,1.41-2.4,2.78-3.6,4.16l-1.84,2.06-2,2c-1.36,1.32-2.63,2.64-4.09,3.93s-2.93,2.61-4.47,3.81A101,101,0,0,1,241.45,254Z"/><path d="M466.44-24.29,486,3.36l5.23-3.74L471.52-27.91ZM466.1-6a22.72,22.72,0,0,0-5.68,5.39A11.71,11.71,0,0,0,458.11,5a7.62,7.62,0,0,0,1.35,5.16,7.51,7.51,0,0,0,4.26,3.07,11.82,11.82,0,0,0,6.15-.1A22.22,22.22,0,0,0,477,9.67l5.38-3.74,5.35-3.8-2.32-3.27L480.19,2.6l-5.28,3.66a10.62,10.62,0,0,1-6.14,2.3,4.8,4.8,0,0,1-4.11-2.08,4.75,4.75,0,0,1-.49-4.65A11.25,11.25,0,0,1,468.52-3l5.21-3.62,5.17-3.68-2.24-3.14L471.4-9.72ZM443.19-8.2l12.49,1.6,12.53,1.47,4.05-4.66q-11.33-1.37-22.51-2.86Z"/><path d="M432.62-1.09l15.85,23.75L453,26l3.73-2.49L437.84-4.57ZM413.7,18.75c13,2.52,26.13,5,39.3,7.29l-2.71-5.53L430.63,16.9l-19.56-3.78Zm-6.34-3.22,18.48,28.4,5.32-3.47L415.38,16.3l-4.31-3.18Z"/><path d="M386.3,45.56a5.65,5.65,0,0,0-.95,2.71,3.85,3.85,0,0,0,.64,2.47,3.7,3.7,0,0,0,2,1.53,6,6,0,0,0,2.85.19,9.18,9.18,0,0,0,5.69-3.73,6.06,6.06,0,0,0,1-2.72,3.82,3.82,0,0,0-.61-2.46,3.88,3.88,0,0,0-2-1.57A5.66,5.66,0,0,0,392,41.8a8.79,8.79,0,0,0-3.23,1.35A8.22,8.22,0,0,0,386.3,45.56Z"/><path d="M350.56,53.64l20,27.33,4.92-3.58L355.84,49.8ZM349.49,92l2.69,3.23c6.46-5.27,13-10.46,20-15.41l-2.47-3.4C362.7,81.42,356,86.67,349.49,92Zm-7.71-12.23,2.54,3.1c3.17-2.53,6.27-5.12,9.52-7.55l4.84-3.69,4.92-3.58-2.35-3.24-5,3.61-4.89,3.73C348.12,74.6,345,77.23,341.78,79.78ZM330.25,69.42l2.69,3.23c7.12-5.85,14.36-11.54,21.77-16.84l-2.46-3.4C344.78,57.76,337.46,63.5,330.25,69.42Z"/><path d="M318.44,79.8l19.38,21,4.9,2.72,3.06-2.79L323.38,75.3Zm-15.25,24.56,5-.57,5.07-.35c3.36-.19,6.61-.39,9.92-.43s6.6,0,9.82,0,6.52.26,9.7.44l-3.54-5a219.91,219.91,0,0,0-40.05,1.16ZM296,103.28l26.1,21.6,3.71-4.38-21.63-19.09-5.09-1.78Z"/><path d="M279.87,127.58a12,12,0,0,0,.55,6.6,9.16,9.16,0,0,0,4.21,4.53l20.44,11.15c.87-1.7,1.88-3.26,2.84-4.87l-20.22-12a5.59,5.59,0,0,1-2.48-2.75,6.67,6.67,0,0,1-.29-3.74,8.68,8.68,0,0,1,.63-2.06,13.2,13.2,0,0,1,1.18-2.06,13.4,13.4,0,0,1,3.16-3.35,8.26,8.26,0,0,1,3.63-1.55l.45-5.51a14.4,14.4,0,0,0-5.73,2.44,23.3,23.3,0,0,0-5.3,5.73A18.16,18.16,0,0,0,279.87,127.58Z"/><path d="M258.17,171.69a24.61,24.61,0,0,0,.19,8,19.5,19.5,0,0,0,2.65,6.86,14.11,14.11,0,0,0,5,4.86,12.77,12.77,0,0,0,6.9,1.71,17.28,17.28,0,0,0,7.42-2.1,25.17,25.17,0,0,0,6.86-5.48,30.63,30.63,0,0,0,2.89-3.8,36.79,36.79,0,0,0,2.37-4.36,30.73,30.73,0,0,0,2.62-9,23.58,23.58,0,0,0-.32-8.18,18.48,18.48,0,0,0-2.92-6.73,14.07,14.07,0,0,0-5.34-4.57,13.17,13.17,0,0,0-6.88-1.38,17.46,17.46,0,0,0-7.26,2.22,25.24,25.24,0,0,0-6.62,5.4,31.23,31.23,0,0,0-5.05,7.89,30.76,30.76,0,0,0-1.63,4.35A27.11,27.11,0,0,0,258.17,171.69ZM268.46,159a17.15,17.15,0,0,1,4.71-3.82,12.05,12.05,0,0,1,5.25-1.46,11.61,11.61,0,0,1,10.47,5.9,14.47,14.47,0,0,1,1.71,7.29,21.46,21.46,0,0,1-2.12,8.69,23.47,23.47,0,0,1-3.83,6,17,17,0,0,1-4.86,3.86,12.43,12.43,0,0,1-5.34,1.45,10.34,10.34,0,0,1-5.22-1.22,11.38,11.38,0,0,1-5-5,15.3,15.3,0,0,1-1.58-7.31,21.5,21.5,0,0,1,2.13-8.55A22.7,22.7,0,0,1,268.46,159Z"/><path d="M250,208.68c.12,1.12.24,2.28.31,3.42s.09,2.27.11,3.43a65.13,65.13,0,0,1-.21,7.1c-.11,1.2-.23,2.41-.38,3.64s-.38,2.41-.6,3.64a73.91,73.91,0,0,1-1.73,7.4c1.25-.87,2.53-1.69,3.74-2.61s2.43-1.84,3.61-2.8c.32-2.08.59-4.12.79-6.12s.19-4,.21-6c0-1,0-1.93,0-2.89l-.17-2.91c-.14-1.91-.3-3.77-.54-5.61-.72.86-1.48,1.69-2.22,2.54a108.75,108.75,0,0,0,22.92-3c1.5-2.37,3-4.75,4.35-7.13a121.68,121.68,0,0,1-27.58,4.92C251.82,206.74,250.9,207.68,250,208.68Zm-10.88-8.46,12.32,11.41c1.39-1.63,2.9-3.16,4.17-4.88l-13.11-10.49-.81,1.05c-.28.34-.58.64-.86,1Z"/><path class="cls-1" d="M355.27-23.53A349.3,349.3,0,0,0,297-9.86c-2.4.71-4.73,1.64-7.1,2.45s-4.72,1.66-7.07,2.53l-7,2.78L272.34-.72c-1.17.46-2.3,1-3.45,1.49L262,3.8l-1.72.75-1.69.82L255.23,7c-2.25,1.1-4.52,2.16-6.75,3.29l-6.64,3.51-3.32,1.75c-1.1.6-2.17,1.25-3.26,1.86l-6.51,3.75c-1.09.6-2.16,1.26-3.21,1.93l-3.18,2c-2.12,1.34-4.27,2.62-6.35,4l-6.21,4.21-3.11,2.1-3,2.2-6,4.43c-2,1.46-3.94,3.07-5.91,4.6s-4,3.06-5.86,4.67l-5.7,4.85-2.85,2.43L174.56,61c-1.85,1.63-3.57,3.32-5.34,5a189.83,189.83,0,0,0-18.83,20.81,115.21,115.21,0,0,0-13.4,22c-.47.92-.78,1.86-1.18,2.79s-.82,1.85-1.11,2.78c-.61,1.87-1.36,3.72-1.8,5.59-.25.93-.54,1.86-.78,2.79l-.58,2.8-.31,1.4-.18,1.36-.41,2.73a71,71,0,0,0,9.92,43.72,26.94,26.94,0,0,0,1.53,2.39c.54.77,1,1.6,1.59,2.34,1.16,1.47,2.23,3,3.5,4.37.62.68,1.17,1.44,1.84,2.07l1.94,2a47,47,0,0,0,3.91,3.46A60.36,60.36,0,0,0,174,201.41a64,64,0,0,0,21.86,3,51.26,51.26,0,0,0,19.87-4.67L241.45,254a111.31,111.31,0,0,1-43.18,10.4,123.74,123.74,0,0,1-42.5-5.79,120.39,120.39,0,0,1-38.25-20.28c-1.42-1.19-2.89-2.31-4.26-3.57s-2.83-2.49-4.06-3.77l-3.8-3.84c-1.28-1.27-2.4-2.67-3.59-4-2.42-2.67-4.53-5.54-6.68-8.38-1.08-1.42-2-2.93-3-4.4s-2-2.94-2.87-4.48l-2.67-4.59c-.87-1.54-1.63-3.13-2.44-4.7-1.65-3.13-3-6.4-4.36-9.63a131.28,131.28,0,0,1-6.26-20.15l-.6-2.57c-.19-.86-.31-1.74-.47-2.61l-.89-5.22c-.23-1.75-.41-3.51-.61-5.27l-.27-2.64c-.08-.88-.11-1.77-.16-2.66l-.24-5.32c0-1.79,0-3.57.06-5.36l0-2.67.19-2.68.43-5.36.76-5.36.41-2.67.53-2.59,1.11-5.19c.42-1.7.91-3.38,1.38-5.08.88-3.41,2.09-6.64,3.22-9.93.55-1.66,1.26-3.2,1.89-4.8s1.28-3.2,2-4.72a175,175,0,0,1,20.43-33.71,248.19,248.19,0,0,1,24.89-27.6c2.19-2.06,4.37-4.17,6.6-6.15l3.32-3,3.37-2.87L147.65,5c2.25-1.9,4.6-3.67,6.89-5.51s4.59-3.69,7-5.42l7.13-5.21,3.57-2.59,3.65-2.48,7.31-4.94c2.45-1.62,5-3.14,7.45-4.71l3.74-2.33c1.24-.79,2.49-1.56,3.78-2.28l7.63-4.39c1.28-.73,2.54-1.48,3.84-2.18l3.89-2.06,7.79-4.12c2.62-1.33,5.28-2.57,7.92-3.86l4-1.92,2-1,2-.89,8.07-3.55c1.35-.58,2.68-1.21,4-1.74l4.1-1.63L261.58-61c2.75-1,5.53-2,8.29-3s5.52-2,8.34-2.87a409,409,0,0,1,68.65-16.09Z"/><path d="M214.07,230.19a6,6,0,0,0-1.8,2.21A4.1,4.1,0,0,0,212,235a3.61,3.61,0,0,0,1.37,2.14,6.08,6.08,0,0,0,2.78,1.11,8.21,8.21,0,0,0,3.73-.34,8.37,8.37,0,0,0,3.35-1.78,5.71,5.71,0,0,0,1.75-2.46,3.58,3.58,0,0,0-.05-2.56,3.92,3.92,0,0,0-1.66-1.94,6.22,6.22,0,0,0-2.76-.85,9.77,9.77,0,0,0-3.37.42A9.17,9.17,0,0,0,214.07,230.19Z"/><path d="M183.25,218.35l-4.48,33.58,3.76.45,3.77.3,2.2-33.81-2.63-.2Zm-18.6-4.83-1.54,3.91c1.7.7,3.45,1.26,5.18,1.86s3.52,1.07,5.32,1.49a79.81,79.81,0,0,0,10.85,1.94l.46-4.17a75.11,75.11,0,0,1-10.3-1.85c-1.71-.39-3.37-.92-5.05-1.41S166.26,214.19,164.65,213.52Z"/><path d="M154.09,208.41,137,237.64c2.21,1.26,4.42,2.52,6.7,3.61l15-30.36C157.12,210.14,155.61,209.26,154.09,208.41Zm-37.19,7.94-3.05,2.88,2.79,2.82,1.4,1.41c.48.46,1,.91,1.49,1.36,2,1.85,4.07,3.54,6.18,5.22a107.12,107.12,0,0,0,13.38,8.8l2-3.67a103.35,103.35,0,0,1-12.84-8.45c-2-1.61-4-3.23-5.92-5-.48-.43-1-.86-1.43-1.31l-1.35-1.35Zm11.75-8.53-2.85,2.81a86.72,86.72,0,0,0,20.35,15.49l1.95-3.5A82.53,82.53,0,0,1,128.65,207.82Zm9.61-12.06-3.06,2.87,2.07,2.09c.69.69,1.37,1.41,2.1,2s1.41,1.31,2.16,1.91l2.24,1.84a79.66,79.66,0,0,0,9.73,6.4l2-3.67a74.74,74.74,0,0,1-9.19-6l-2.11-1.72c-.71-.57-1.35-1.21-2-1.8a27.6,27.6,0,0,1-2-1.93Z"/><path d="M131.92,188.07c-2.62.54-5.17.89-7.84,1.23s-5.42.59-8.08.69a119.6,119.6,0,0,1-16.57-.37l1.2,2.38a122.76,122.76,0,0,1,9.26-13.75c1.68-2.15,3.37-4.21,5.14-6.19s3.66-3.93,5.53-5.76c-.73-1.81-1.17-3.71-1.76-5.56q-3.49,3.07-6.9,6.52c-2.19,2.27-4.31,4.66-6.4,7.18s-4,5.12-5.94,7.85c-.94,1.36-1.88,2.76-2.8,4.18s-1.75,2.84-2.6,4.31c.82,1.6,1.6,3.23,2.48,4.81a114.7,114.7,0,0,0,38.76-3.08c-.3-.36-.62-.7-.92-1.07l-.85-1.13ZM114,170.76l-3.75,1.41a96.42,96.42,0,0,0,10.9,20.9l3.3-2.27A92.72,92.72,0,0,1,114,170.76Z"/><path d="M116.48,149.7l-33.55,4.69c.41,2.46.82,4.92,1.27,7.37L117.39,155ZM101,141c-.11-1.47-.11-2.84-.31-4.13a23.88,23.88,0,0,0-.82-3.61A12.57,12.57,0,0,0,97,127.84a7.67,7.67,0,0,0-4.76-2.46A6.78,6.78,0,0,0,87,126.8a13.28,13.28,0,0,0-3.84,5.63,20.75,20.75,0,0,0-1,4.21,24.62,24.62,0,0,0-.28,4.94,115.62,115.62,0,0,0,1.46,15.24l4-.63a109.69,109.69,0,0,1-1.4-14.49,13.85,13.85,0,0,1,.36-4.16,9,9,0,0,1,1.25-3,4.57,4.57,0,0,1,4.15-2.25,4.89,4.89,0,0,1,4,2.56,9.13,9.13,0,0,1,1.09,2.83,27.28,27.28,0,0,1,.42,3.75c.14,2.17.13,4.36.43,6.52s.41,4.33.83,6.47l3.81-.62A97.54,97.54,0,0,1,101,141Zm15.69-15.24a79.82,79.82,0,0,0-17.58,16.53l.9,3c.29,1,.7,1.95,1,2.92l1.66-2.26c.57-.74,1.19-1.47,1.78-2.18q1.8-2.14,3.61-4.12c1.28-1.32,2.57-2.58,3.85-3.79.65-.6,1.26-1.2,1.94-1.77l2-1.67c.1-1.11.14-2.23.28-3.33Z"/><path d="M119.1,115.18l-27.4-8.06q-2.83.27-5.7.63c-.46,1.68-1,3.35-1.29,5.08l33,7.55.27-1.31.36-1.3Zm3.82-24.41a112,112,0,0,0-36.92,17l5.64,2.49a108.35,108.35,0,0,1,36.27-15.76Zm7,.3-29-17.43L99,76.71l-1.72,3.17,25.4,13.68q2.63.42,5.22.92C128.49,93.32,129.22,92.2,129.89,91.07Z"/><path d="M138.4,57.2a5.79,5.79,0,0,0,.25-2.86,3.89,3.89,0,0,0-1.18-2.26,3.73,3.73,0,0,0-2.34-1,5.89,5.89,0,0,0-2.85.57,8.59,8.59,0,0,0-2.84,2.17,8.16,8.16,0,0,0-1.81,3.12,6,6,0,0,0-.21,2.94,3.66,3.66,0,0,0,1.29,2.18,3.94,3.94,0,0,0,2.41.89,5.74,5.74,0,0,0,2.81-.65,9.47,9.47,0,0,0,2.7-2.16A8.16,8.16,0,0,0,138.4,57.2Z"/><path d="M171.33,44.51l-22.08-25.7c-1.68,1.46-3.38,2.84-5,4.35l22.54,25.29C168.23,47.1,169.81,45.83,171.33,44.51Zm.43-38.41-2.51-3.36c-1.89,1.34-3.69,2.79-5.51,4.22l-5.45,4.31c-.91.72-1.83,1.42-2.72,2.17l-2.64,2.25-5.29,4.5,2.75,3.17,5.23-4.46,2.62-2.22c.87-.74,1.79-1.43,2.68-2.15l5.39-4.25C168.11,8.86,169.9,7.42,171.76,6.1Zm7.09,12.6-2.42-3.19c-3.27,2.52-6.5,5.11-9.75,7.67-1.65,1.25-3.19,2.64-4.77,4l-4.73,4,2.63,3,4.67-4c1.57-1.31,3.09-2.68,4.72-3.92C172.42,23.76,175.61,21.2,178.85,18.7Zm11,11L187.3,26.3c-.86.65-1.75,1.26-2.6,1.93l-2.55,2-5.09,4c-.85.68-1.71,1.33-2.54,2l-2.47,2.11-4.94,4.2,2.75,3.17,4.88-4.15,2.44-2.08c.82-.69,1.68-1.33,2.51-2l5-4,2.52-2C188.08,30.91,189,30.3,189.82,29.66Z"/><path d="M201.46,21.34,185.3-2.21l-4.65-3.27-1.93,1.3-1.89,1.37,19.65,27.6C198.09,23.57,199.79,22.48,201.46,21.34Zm18.61-19.1a354.15,354.15,0,0,0-39.42-7.72L183.44,0q5,.77,10,1.62c3.3.57,6.53,1.12,9.82,1.84s6.49,1.4,9.69,2.14l4.75,1.12c1.59.39,3.19.83,4.76,1.25Zm6.07,3.61L209.31-23.56l-5.75,3.32L218.32,4.55,222.45,8Z"/><path d="M1636.26,195.17a105.44,105.44,0,0,0,19.2,9.81c.79.35,1.55.53,2.32.81s1.54.56,2.29.74c1.5.38,3,.89,4.45,1.12a46.93,46.93,0,0,0,8.31,1.06c.64,0,1.28,0,1.92,0,.32,0,.65,0,1,0l.92-.1c.61-.07,1.23-.08,1.84-.15s1.18-.23,1.78-.33l.89-.13.85-.25c.56-.16,1.14-.25,1.7-.44s1.12-.41,1.7-.6l.42-.13.42-.2.85-.37c1.15-.41,2.26-1.13,3.41-1.67,1.11-.75,2.28-1.32,3.38-2.19a46.88,46.88,0,0,0,6.59-5.6l1.58-1.62,1.52-1.76c.52-.57,1-1.2,1.48-1.83s1-1.22,1.45-1.88a79,79,0,0,0,5.16-8.25l1.1-2.2.56-1.1.49-1.13c.33-.76.68-1.48,1-2.27l1-2.45a104.4,104.4,0,0,0,3.29-10.35c3.86-14.39,5.36-31,6.33-49,3.93-73.18,4.86-146.68,2.75-220l60.14-1.73Q1791.5,3.5,1785.45,116c-.54,9.53-1.19,19.4-2.41,29.62-.61,5.11-1.34,10.3-2.31,15.57s-2.11,10.59-3.54,16a166.74,166.74,0,0,1-5.16,16.15l-1.58,4c-.56,1.36-1.19,2.74-1.79,4.1l-.91,2.05-1,2c-.67,1.33-1.33,2.68-2,4a138.42,138.42,0,0,1-9.59,15.32c-.87,1.24-1.85,2.43-2.78,3.65s-1.87,2.41-2.91,3.57l-3,3.49-3.25,3.37a105.9,105.9,0,0,1-14.61,12.37c-2.6,1.94-5.5,3.61-8.31,5.33-3,1.57-5.89,3.2-9.06,4.5l-2.34,1-1.18.5-1.21.43q-2.43.87-4.88,1.68c-1.64.53-3.34.93-5,1.38l-2.52.63c-.84.18-1.69.32-2.53.47-1.69.31-3.38.59-5.08.86s-3.38.35-5.08.5l-2.54.2c-.85.07-1.68.05-2.52.07l-5,0a106.45,106.45,0,0,1-19.27-2.37c-3.13-.59-6-1.47-9-2.28-1.49-.41-2.88-.93-4.33-1.39s-2.89-.93-4.24-1.49A165.33,165.33,0,0,1,1604.05,246Z"/><path class="cls-2" d="M1743.71-4Q1758,2.81,1772.27,9.8l0-2q-14.46,6.51-29,12.88l-.12,5.81c11.42-5.13,22.87-10.34,34.26-15.61l.06-3.93q-16.86-8.43-33.79-16.66Zm7.36,23,4,.07c.14-7,.22-13.93.31-20.9l-4,0C1751.29,5,1751.21,12,1751.07,18.92Z"/><path class="cls-2" d="M1743,37.76l34,.87.13-5.43-34-.8Zm14.52,9.61a16.7,16.7,0,0,0,1,6.63,10,10,0,0,0,3.21,4.44,8.55,8.55,0,0,0,5,1.69,8.37,8.37,0,0,0,5-1.37,10.19,10.19,0,0,0,3.54-4.24,16.21,16.21,0,0,0,1.44-6.6l.3-11.08-4-.1-.3,10.89a8,8,0,0,1-1.77,5.34,5.1,5.1,0,0,1-4.11,1.75,5,5,0,0,1-4.06-2,8.53,8.53,0,0,1-1.36-5.44l.29-10.79-3.86-.1ZM1742.24,62q8.65-7.76,17.24-15.6l-1.37-5.14-15.64,14Z"/><path class="cls-2" d="M1741.84,72.87,1770.45,74l5.4-1.41.15-3.81-34-1.24Zm5.19,23q14.45-11.55,28.82-23.33l-6.09-.93q-14.37,11.74-28.85,23.22Zm-6.3,2.72,33.93,1.64.25-5.42L1746,93.5l-5.11,1.36Z"/><path class="cls-2" d="M1752.75,128.18a5,5,0,0,0,1.57,2.07,4.31,4.31,0,0,0,2.36.92,4.18,4.18,0,0,0,2.45-.52,5.17,5.17,0,0,0,1.89-1.83,6.79,6.79,0,0,0,.42-5.88,5.27,5.27,0,0,0-1.6-2.11,4.3,4.3,0,0,0-2.35-.87,4.44,4.44,0,0,0-2.47.57,5,5,0,0,0-1.86,1.86,6.43,6.43,0,0,0-.83,2.86A6.17,6.17,0,0,0,1752.75,128.18Z"/><path class="cls-2" d="M1735.77,153.85l33.4,6.2c.35-1.94.71-3.88,1-5.8l-33.55-5.31C1736.37,150.59,1736.07,152.22,1735.77,153.85Zm23.77,27.42,4,1.31a183.48,183.48,0,0,0,6-24.39l-4.14-.73A178.33,178.33,0,0,1,1759.54,181.27Zm-13.22-6,3.83,1.2a168.19,168.19,0,0,0,5-20.83l-4-.7A164.29,164.29,0,0,1,1746.32,175.29Zm-15.16-3,4,1.31a153.86,153.86,0,0,0,5-20.61l-4.15-.73A148.69,148.69,0,0,1,1731.16,172.32Z"/><path class="cls-2" d="M1727.16,182.67l26.12,11.72q2.81.27,5.64.46c.62-1.37,1.14-2.72,1.66-4.07L1729,178.39c-.29.72-.56,1.48-.87,2.18ZM1722.25,203a101.28,101.28,0,0,0,36.67-8.18l-5.31-3.13a97.27,97.27,0,0,1-35.89,7.1Zm-6.47-1.72,26.38,21.4c1.3-1.7,2.69-3.36,3.9-5.12l-23.46-16.92c-1.64-.59-3.25-1.19-4.88-1.85Z"/><path class="cls-2" d="M1702.74,214.82a11.76,11.76,0,0,0-.84,5.18,13,13,0,0,0,1.84,5.77l11.82,20.14c1.92-1.21,3.92-2.33,5.71-3.67l-13.44-19.38a7.56,7.56,0,0,1-1.38-3.38,5.39,5.39,0,0,1,.43-3,6.15,6.15,0,0,1,1.91-2.49,8,8,0,0,1,2.84-1.52,7.21,7.21,0,0,1,3.21-.11c.09-1.52.15-3,.19-4.48a11.15,11.15,0,0,0-4.74.41,8.86,8.86,0,0,0-2.29.92,9.68,9.68,0,0,0-1.07.69c-.35.26-.72.5-1.08.79a10.13,10.13,0,0,0-1.83,1.94A9.06,9.06,0,0,0,1702.74,214.82Z"/><path class="cls-2" d="M1673.09,224.17c-.95.5-1.89.92-2.79,1.49a19.93,19.93,0,0,0-2.63,2,21.74,21.74,0,0,0-4.52,5,17.43,17.43,0,0,0-2.64,6.47,13.45,13.45,0,0,0,.47,7,15.6,15.6,0,0,0,4.15,6.2,20.14,20.14,0,0,0,3.42,2.38,17.61,17.61,0,0,0,4.18,1.75,29.29,29.29,0,0,0,4.83.95,33.79,33.79,0,0,0,5.3-.1,23.28,23.28,0,0,0,5.21-1.08,20.68,20.68,0,0,0,4.6-1.93,26.6,26.6,0,0,0,3.81-2.64,19,19,0,0,0,2.82-3.19,15.14,15.14,0,0,0,1.84-3.41,14.34,14.34,0,0,0,.8-3.57,13.36,13.36,0,0,0-1.25-6.9,17.89,17.89,0,0,0-4.1-5.64,22.39,22.39,0,0,0-2.64-2.11,28.15,28.15,0,0,0-2.86-1.76,23.51,23.51,0,0,0-2.95-1.28,15.93,15.93,0,0,0-3-.89,25.41,25.41,0,0,0-3-.44c-1-.06-2,.06-3.09.1a14.42,14.42,0,0,0-3,.59A13.57,13.57,0,0,0,1673.09,224.17Zm11.39,3c.8.22,1.55.4,2.28.68a12.41,12.41,0,0,1,2.14,1,15.84,15.84,0,0,1,3.81,3.17,14.34,14.34,0,0,1,2.69,4.63,10.79,10.79,0,0,1,.26,7.06,11.87,11.87,0,0,1-.69,1.7,12.26,12.26,0,0,1-1,1.54,15.27,15.27,0,0,1-2.87,2.79,9.67,9.67,0,0,1-1.84,1.13,20.67,20.67,0,0,1-2.08.9,17.56,17.56,0,0,1-4.8,1.1,18.12,18.12,0,0,1-7.15-.52,13.28,13.28,0,0,1-5.37-2.79,11.48,11.48,0,0,1-3.11-4.36,10.81,10.81,0,0,1-.63-5.28,14,14,0,0,1,2.47-6.61,14.86,14.86,0,0,1,2.2-2.5c.4-.36.81-.68,1.24-1a15.37,15.37,0,0,1,1.34-.94,11.12,11.12,0,0,1,2.94-1.28,12.75,12.75,0,0,1,3.28-.71c.43,0,.86,0,1.27,0a10,10,0,0,1,1.22,0A11.48,11.48,0,0,1,1684.48,227.17Z"/><path class="cls-2" d="M1642.33,230.34a141.2,141.2,0,0,1-23.85,10.78c2,1.11,4,2.24,6.12,3.26q2.55-1,5-2.11t4.91-2.32c3.18-1.54,6.33-3.3,9.3-5.08l-2.66-1a104.84,104.84,0,0,0,3.36,10q1,2.51,2.1,5.05t2.45,4.95c2.39.71,4.91,1.2,7.4,1.71-1.25-2-2.41-3.93-3.5-5.88s-2-4-3-6-1.73-4-2.48-6.05-1.45-4-2-6.06Zm4.41-13.09-6.54,15.52,5.08,2,5.77-15.82Z"/><path d="M1930.22,103.51a669.38,669.38,0,0,0-211.76,11.27c-16.83,3.66-33.06,8.33-47.77,14.56s-27.76,14.09-37.41,23.56a70.09,70.09,0,0,0-12,15.3l-1.15,2.07-1.05,2.11a34.69,34.69,0,0,0-1.58,3.68,20.45,20.45,0,0,0-.79,2.64c-.06.31-.11.64-.13.75s0,0,0,0h0s0-.05,0,0a2,2,0,0,1,.18.28l.3.38a23.93,23.93,0,0,0,2,2.17,72,72,0,0,0,7.55,6.21c1.6,1.16,3.19,2.35,4.8,3.43s3.22,2.17,4.83,3.2L1604.05,246c-2.3-1.46-4.58-2.94-6.77-4.48s-4.36-3.09-6.51-4.66a130.53,130.53,0,0,1-13.83-11.57,84.54,84.54,0,0,1-7.32-8.18l-1.79-2.39-1.76-2.61a63.52,63.52,0,0,1-3.42-6,57.91,57.91,0,0,1-6.23-26.81c0-1.16.06-2.32.13-3.47s.18-2.33.32-3.45c.27-2.19.6-4.15,1-6.11a81.76,81.76,0,0,1,3.09-10.71,90.75,90.75,0,0,1,3.87-9.11l2-4.12c.73-1.35,1.48-2.68,2.23-4a130.41,130.41,0,0,1,22.13-28.45,159.55,159.55,0,0,1,13.17-11.41c4.54-3.47,9.19-6.66,13.9-9.62s9.51-5.6,14.32-8.08,9.68-4.7,14.54-6.77c19.48-8.24,39.11-13.74,58.5-18a729.59,729.59,0,0,1,230.94-12.3Z"/><path class="cls-2" d="M1610.65,211.93a5.19,5.19,0,0,0-2.6.25,4.41,4.41,0,0,0-2,1.51,4.15,4.15,0,0,0-.86,2.35,5.34,5.34,0,0,0,.58,2.58,6.38,6.38,0,0,0,2,2.3,6.47,6.47,0,0,0,2.86,1.19,5.32,5.32,0,0,0,2.66-.28,4.11,4.11,0,0,0,1.94-1.58,4.44,4.44,0,0,0,.76-2.42,5.1,5.1,0,0,0-.65-2.55,6.43,6.43,0,0,0-2-2.17A6.08,6.08,0,0,0,1610.65,211.93Z"/><path class="cls-2" d="M1603.59,186.09l-30.29,15.4c.63,1.3,1.41,2.53,2.15,3.78s1.49,2.29,2.27,3.33l27.4-20.07c-.34-.45-.61-.91-.89-1.3S1603.75,186.49,1603.59,186.09Zm-1.33-9.43-4.15-.71a24.65,24.65,0,0,0-.34,3.45,19.5,19.5,0,0,0,.25,3.33,18.8,18.8,0,0,0,.87,3.21,20.22,20.22,0,0,0,1.47,3l3.63-2.12a15.07,15.07,0,0,1-1.13-2.32,13.72,13.72,0,0,1-.68-2.49,16,16,0,0,1-.2-2.58A20.29,20.29,0,0,1,1602.26,176.66Z"/><path class="cls-2" d="M1604.76,168.62l-31.26-13.29c-.89,2.1-1.73,4.26-2.47,6.57l32.31,10.49C1603.72,171.18,1604.22,169.91,1604.76,168.62Zm-15.49-32.5-3.4-2.47a115,115,0,0,0-7.23,11.33c-.54,1-1.12,2-1.62,3l-1.51,3c-1,2-2,4.17-2.84,6.4l3.91,1.55c.85-2.12,1.75-4.22,2.72-6.12l1.45-2.9c.49-1,1-1.9,1.56-2.85A112.73,112.73,0,0,1,1589.27,136.12Zm10.73,9.79-3.29-2.31a97.91,97.91,0,0,0-10.48,19.12l3.73,1.48A94,94,0,0,1,1600,145.91Zm13.49,7.52-3.4-2.48a85.68,85.68,0,0,0-5.43,8.47c-.4.73-.83,1.45-1.22,2.2l-1.11,2.25a47.36,47.36,0,0,0-2,4.43l3.92,1.55a44.52,44.52,0,0,1,1.86-4.15l1.05-2.13c.37-.71.78-1.39,1.16-2.09A81.35,81.35,0,0,1,1613.49,153.43Z"/><path class="cls-2" d="M1618.92,146.78A142.55,142.55,0,0,1,1608.31,117c-.56.49-1.14,1-1.68,1.47a163.29,163.29,0,0,1,28.36,14c1.39-1,2.83-2,4.27-3a167.35,167.35,0,0,0-33.54-17.18c-1.14,1-2.28,2-3.38,3a137.16,137.16,0,0,0,13.42,35.17C1616.82,149.25,1617.79,148,1618.92,146.78Zm10.13-19.48-2.4-3.22a110.62,110.62,0,0,0-15.12,13.45l2.93,2.74A106.23,106.23,0,0,1,1629.05,127.3Z"/><path class="cls-2" d="M1648,124.19l-16.62-29.62L1628.76,96l-2.59,1.56,17.61,29.05,2.08-1.26Zm.91-17.17a18.25,18.25,0,0,0,5.44-3.91,10.34,10.34,0,0,0,2.66-4.83,8.49,8.49,0,0,0-.53-5.25,7.81,7.81,0,0,0-3.4-3.93,10.55,10.55,0,0,0-5.63-1.24,17.41,17.41,0,0,0-7,2c-3.63,1.76-7.2,3.7-10.75,5.72l2,3.48c3.41-2,6.86-3.82,10.36-5.52a8.45,8.45,0,0,1,5.88-1,4.94,4.94,0,0,1,3.47,2.87,5,5,0,0,1-.08,4.56,9.2,9.2,0,0,1-4.31,3.75c-3.28,1.6-6.5,3.35-9.68,5.16l1.92,3.35C1642.39,110.37,1645.6,108.62,1648.9,107Zm19.31,7.54a191.11,191.11,0,0,0-21.11-8.84c-1.32,1.2-2.58,2.48-3.85,3.71a178.38,178.38,0,0,1,19.13,7.6l2.9-1.26Z"/><path class="cls-2" d="M1677.8,110.93l-9.52-27-3.4-4.45-3.82,1.4,12,31.79Zm19.13-12.33a283.09,283.09,0,0,0-32-19.12l1.39,6a280.63,280.63,0,0,1,31.57,19.26Zm4.4,5.23-8.5-32.89c-1.83.46-3.66,1-5.49,1.46l7.68,27.89,2.82,4.46C1699,104.43,1700.16,104.13,1701.33,103.83Z"/><path class="cls-2" d="M1726.1,84.31a5.21,5.21,0,0,0,1.58-2.08,4.31,4.31,0,0,0,.25-2.51,4.19,4.19,0,0,0-1.16-2.23,5.08,5.08,0,0,0-2.26-1.32,6.81,6.81,0,0,0-5.75,1.17,5.25,5.25,0,0,0-1.61,2.09,4.18,4.18,0,0,0-.22,2.5,4.4,4.4,0,0,0,1.2,2.23,5,5,0,0,0,2.28,1.31,6.48,6.48,0,0,0,3,0A6.19,6.19,0,0,0,1726.1,84.31Z"/><path class="cls-2" d="M1756.26,93l-5.12-33.58-5.46.88,5.38,33.54Zm16.57-32.28-.51-4.18c-3.83.46-7.66.92-11.48,1.49s-7.64,1-11.44,1.67l.64,4.16c3.78-.62,7.59-1.1,11.38-1.66S1769,61.15,1772.83,60.69Zm.15,14.48-.5-4-5.22.64-5.21.74c-3.47.51-7,.94-10.42,1.52l.62,4c3.44-.57,6.9-1,10.35-1.51l5.18-.73Zm3.73,15-.5-4.18c-3.72.45-7.44.89-11.14,1.44s-7.42,1-11.11,1.62l.64,4.16c3.67-.6,7.37-1.07,11.05-1.61S1773,90.64,1776.71,90.2Z"/><path class="cls-2" d="M1789.09,88.8l-2.95-28.48L1784,55.18l-3.87.39,3.75,33.77ZM1811,80.69c-4.35-4.33-8.76-8.59-13.27-12.88s-9.07-8.42-13.72-12.63l-.06,6.16c4.62,4.21,9.15,8.36,13.61,12.65s8.84,8.58,13.14,12.9Zm3.4,6-2.24-33.9c-1.84.13-3.69.21-5.52.37L1808.71,82l1.94,4.91Z"/><path class="cls-2" d="M1836.75,84.64a10.53,10.53,0,0,0,4.11-4,10.83,10.83,0,0,0,1.4-5.9l-.57-23.34-5.54.12.77,23.58a6.86,6.86,0,0,1-.76,3.59,5.81,5.81,0,0,1-2.33,2.28,8,8,0,0,1-3.46.88,8.57,8.57,0,0,1-3.62-.59,7.27,7.27,0,0,1-2.79-2l-3.56,3.2a11.87,11.87,0,0,0,4.35,2.86,14.17,14.17,0,0,0,6,.9A13.21,13.21,0,0,0,1836.75,84.64Z"/><path class="cls-2" d="M1876.67,84.51A20.31,20.31,0,0,0,1883,81a18.09,18.09,0,0,0,4.43-5.43,15.62,15.62,0,0,0,1.83-6.74,15.22,15.22,0,0,0-1.28-6.9,17.21,17.21,0,0,0-4.16-5.74,19.81,19.81,0,0,0-6.42-3.93,24.15,24.15,0,0,0-8.07-1.46,22.07,22.07,0,0,0-8.1,1.25,20.06,20.06,0,0,0-6.51,3.74,17,17,0,0,0-4.26,5.57,15.45,15.45,0,0,0-1.43,6.86,15.65,15.65,0,0,0,1.61,6.77,17.8,17.8,0,0,0,4.28,5.59,19.79,19.79,0,0,0,6.31,3.75,23.73,23.73,0,0,0,7.73,1.42A21.38,21.38,0,0,0,1876.67,84.51Zm-13.45-4.24a13.65,13.65,0,0,1-4.52-2.71,12,12,0,0,1-3-4.15,13.06,13.06,0,0,1-1.1-5.26,12.21,12.21,0,0,1,1.84-6.76,12.89,12.89,0,0,1,5.18-4.61,15.83,15.83,0,0,1,7.65-1.59,17.74,17.74,0,0,1,6,1.05,13.36,13.36,0,0,1,4.6,2.82,12.71,12.71,0,0,1,3,4.25,13,13,0,0,1-1.2,12,13.58,13.58,0,0,1-5.2,4.49,15.69,15.69,0,0,1-7.46,1.56A17.25,17.25,0,0,1,1863.22,80.27Z"/><path class="cls-2" d="M1909,73.13c5.71-6.29,11.57-12.65,17.57-18.77-2.09-.2-4.18-.43-6.27-.59q-7.18,7.71-14.08,15.46l2.81.22c-3.81-5.85-7.74-11.49-11.76-17.25-2.14-.12-4.27-.26-6.41-.32,5.06,6.94,10,14,14.72,21Zm0,13.84,1.23-16.79c-1.8-.13-3.59-.3-5.39-.39l-1.09,16.8C1905.55,86.68,1907.3,86.85,1909.05,87Z"/><path class="cls-1" d="M1891.66,184.84c31.41,4.69,63.16,9.8,95,16.65s63.67,15.33,95,26.9l-20.87,56.26c-27.79-10.26-56.94-18.09-86.74-24.5s-60.31-11.35-91.22-16Z"/><path d="M1913.23,203.75A11.48,11.48,0,0,0,1910,207a24,24,0,0,0-2.66,5.22,33.46,33.46,0,0,0-1.69,6.61,33.87,33.87,0,0,0-.41,6.85,23.92,23.92,0,0,0,.94,5.78,11.54,11.54,0,0,0,2.08,4.09,4.85,4.85,0,0,0,6.56,1,11.14,11.14,0,0,0,3.24-3.23,24.13,24.13,0,0,0,2.66-5.18,36,36,0,0,0,2.2-13.41A23.55,23.55,0,0,0,1922,209a11.5,11.5,0,0,0-2.11-4.14,5.09,5.09,0,0,0-3.13-1.86A5,5,0,0,0,1913.23,203.75Zm5.17,4.91a7.87,7.87,0,0,1,1.5,3,16.85,16.85,0,0,1,.59,4.3,27.84,27.84,0,0,1-.4,5.25,26.1,26.1,0,0,1-1.86,6.52,12.19,12.19,0,0,1-2.86,4.19A4,4,0,0,1,1912,233a3.65,3.65,0,0,1-2.29-1.33,7.92,7.92,0,0,1-1.49-3,17.8,17.8,0,0,1-.63-4.28,27.31,27.31,0,0,1,.35-5.2,25.85,25.85,0,0,1,1.85-6.56,12.14,12.14,0,0,1,2.88-4.23,4.1,4.1,0,0,1,3.44-1.16A3.77,3.77,0,0,1,1918.4,208.66Z"/><path d="M1897.71,214.41l-9.61,18.89,2.56.38,7.78-15.45-1.18-.18,2.78,17.07,2.6.4-3.48-20.89Zm1.64-13.67-2.53,16.6,2.27.34,2.54-16.59Z"/><path class="cls-1" d="M1714.08,148.83a292,292,0,0,0,40.57,12.86c14.34,3.5,29.19,6.41,44.28,9,30.22,5.23,61.34,9.41,92.73,14.11l-8.85,59.35c-30.93-4.64-62.28-8.84-94.17-14.35-15.94-2.78-32-5.91-48.31-9.88a348.06,348.06,0,0,1-49.41-15.79Z"/><path d="M1882.12,212a4.65,4.65,0,0,0-1.07,1.6,9.4,9.4,0,0,0-.7,4.75,4.87,4.87,0,0,0,.56,1.84,1.49,1.49,0,0,0,2.44.36,4.78,4.78,0,0,0,1.09-1.59,9,9,0,0,0,.65-2.32,8.69,8.69,0,0,0,.05-2.43,4.49,4.49,0,0,0-.57-1.84,1.58,1.58,0,0,0-1.14-.82A1.61,1.61,0,0,0,1882.12,212Z"/><path d="M1872.08,196.69l-4.89,33.52,2.26.33,4.9-33.52Zm-8.25-1.2-.6,4.15,9,1.31.6-4.16Z"/><path d="M1858.77,194.75l-4.88,33.52,2.27.33,4.87-33.52Zm-13,28.09-.61,4.16,9.48,1.38.61-4.16Zm2.75-14.1-.58,4,8.8,1.28.57-4Zm1.42-15.28-.61,4.15,9.59,1.4.6-4.16Z"/><path d="M1845.66,192.83l-9.85,27.51.85.13-1.39-29.18-2.45-.37,1.81,34.53,1.65.24,11.78-32.5ZM1834.92,199l-.59,4,8.79,1.3.58-4Z"/><path d="M1828.08,190.21,1823,223.7l2.27.34,5.08-33.49Zm-6.1,14a3.8,3.8,0,0,0-3,.75,7.9,7.9,0,0,0-2.33,3,17.45,17.45,0,0,0-1.42,4.86,16.81,16.81,0,0,0-.12,5,8.14,8.14,0,0,0,1.31,3.64,3.79,3.79,0,0,0,2.6,1.67l4.66.71.6-4-4.58-.69a2.52,2.52,0,0,1-2-1.95,9.13,9.13,0,0,1-.16-4.13,8.63,8.63,0,0,1,1.43-3.92,2.49,2.49,0,0,1,2.49-1.15l4.54.69.58-3.81Zm-4-15.56,4.19,17.56,2.37-1.17-3.72-15.94Z"/><path d="M1813.37,187.91l-4.51,28.2-.16,5.37,1.6.25,5.31-33.46Zm-10.5,4.52q2.82,14.5,5.83,29l1.25-6q-3-14.55-5.75-29.09Zm-.24-6.28L1797,219.56l2.29.38,4.74-28.46.16-5.07Z"/><path d="M1788.25,197.52a4.65,4.65,0,0,0-1.12,1.56,9.15,9.15,0,0,0-.73,2.32,8.35,8.35,0,0,0-.12,2.41,4.86,4.86,0,0,0,.51,1.86,1.49,1.49,0,0,0,2.45.43,4.69,4.69,0,0,0,1.13-1.56,8.87,8.87,0,0,0,.72-2.3,9.25,9.25,0,0,0,.12-2.43,4.55,4.55,0,0,0-.53-1.85,1.53,1.53,0,0,0-2.43-.44Z"/><path d="M1779,181.88l-6.47,33.25,2.31.46,6.36-33.28Zm-14.5,27.37-.86,4.11,9.63,1.92.8-4.12Zm3.57-13.92-.8,3.92L1776,201l.76-3.93Zm2.33-15.17-.85,4.11,9.36,1.87.79-4.12Z"/><path d="M1765.2,179.05l-6,27.91-.44,5.35,1.62.35,7.05-33.14ZM1754.58,183q.89,7.33,1.93,14.69t2.2,14.66l1.58-5.9q-1.12-7.35-2.14-14.67c-.67-4.9-1.29-9.81-1.87-14.7Zm.19-6.27-7.84,33,2.31.54,6.55-28.1.49-5.05Z"/><path d="M1745.4,175.26a10.34,10.34,0,0,0-2.7,3.29,23.29,23.29,0,0,0-2.14,5.5l-6,22.49,2.31.6,5.94-22.76a14.86,14.86,0,0,1,1.25-3.34,5.48,5.48,0,0,1,1.53-1.85,1.91,1.91,0,0,1,1.6-.34,2,2,0,0,1,1.28,1.09,5.7,5.7,0,0,1,.59,2.32l2.24-2.53a9,9,0,0,0-1-3.42,3.38,3.38,0,0,0-2.12-1.74A3.3,3.3,0,0,0,1745.4,175.26Z"/><path d="M1729.42,170.69a11.82,11.82,0,0,0-3.6,2.78,25.92,25.92,0,0,0-3.41,4.76,34,34,0,0,0-2.74,6.25,31.92,31.92,0,0,0-1.5,6.69,21.85,21.85,0,0,0,.08,5.86,11.06,11.06,0,0,0,1.6,4.4,5.59,5.59,0,0,0,3,2.33,5.48,5.48,0,0,0,3.76-.3,11.1,11.1,0,0,0,3.73-2.79,22.79,22.79,0,0,0,3.28-4.83,32.42,32.42,0,0,0,2.43-6.39,35,35,0,0,0,1.19-6.71,24.82,24.82,0,0,0-.2-5.87,11.71,11.71,0,0,0-1.5-4.34,4.74,4.74,0,0,0-2.71-2.17A4.58,4.58,0,0,0,1729.42,170.69Zm4.21,5.49a8,8,0,0,1,1.08,3.12,18.09,18.09,0,0,1,.06,4.33,29.89,29.89,0,0,1-1,5.17,25.27,25.27,0,0,1-2.6,6.27,11.79,11.79,0,0,1-3.41,3.8,4.29,4.29,0,0,1-3.65.68,4.07,4.07,0,0,1-2.2-1.69,7.9,7.9,0,0,1-1.12-3.2,16.85,16.85,0,0,1,0-4.33,29.44,29.44,0,0,1,4-11.29,13,13,0,0,1,3.43-3.78,3.87,3.87,0,0,1,3.44-.68A3.5,3.5,0,0,1,1733.63,176.18Z"/><path d="M1712.71,178.69c-4.4,5.58-8.92,10.92-13.66,16.28l2.62,1q2.83-3.3,5.58-6.65t5.43-6.8l-1.13-.4q-.29,8.63-.25,17.35c.89.31,1.79.65,2.68.93-.13-7.12-.09-14.24.1-21.27Zm4.35-13.06-5.8,15.75,2.17.77,5.66-15.81Z"/><path d="M142.65,113.56a78.62,78.62,0,0,0-17.41-7.17,129,129,0,0,0-20.71-3.87c-7.43-.84-15.34-1.27-23.71-1.63s-17.22-.63-26.69-1.39l-3.57-.3-.45,0-.53,0-1.4-.18-2.8-.41L44,98.3c-.47-.09-1-.21-1.42-.31l-2.84-.69a55.4,55.4,0,0,1-5.62-1.78A62.92,62.92,0,0,1,14.52,83.71,81.28,81.28,0,0,1,1.71,69.15,135.45,135.45,0,0,1-6.64,55.39c-4.67-8.72-8.23-16.64-11.75-23.47s-6.92-12.64-10.21-16.5c-.41-.54-.82-.91-1.22-1.37A15.15,15.15,0,0,0-31,12.84l-.57-.57-.57-.47-.55-.48c-.12-.12-.08-.05-.1-.06v0s.06-.06,0,0a.05.05,0,0,1,0,0,.11.11,0,0,0,0-.05H-33a.36.36,0,0,1-.18-.07.36.36,0,0,0-.24-.09,4.45,4.45,0,0,1-.73-.2,27,27,0,0,0-6.08-.36c-1.28,0-2.84.18-4.32.29s-3.18.37-4.93.69-3.49.61-5.27.94-3.66.74-5.59,1.2c-3.78.84-7.79,1.85-11.86,2.86-8.22,2-16.87,4.31-26.47,6.17-1.19.24-2.39.47-3.65.68l-3.74.62c-2.59.37-5.14.74-7.9,1a96.71,96.71,0,0,1-17.82.24A67.43,67.43,0,0,1-152.95,20c-.93-.42-1.85-.85-2.77-1.29l-2.06-1-2.49-1.22-5-2.47A197,197,0,0,0-207.85-.23l11.71-54.29a253,253,0,0,1,54.59,18.3L-135-33l3.26,1.63.75.37h.09a.22.22,0,0,1,.13.06,13.33,13.33,0,0,0,3.67.73,41.79,41.79,0,0,0,7.83-.18c1.5-.12,3.18-.38,4.83-.6l2.6-.44c.86-.13,1.75-.3,2.66-.49C-102-33.29-94-35.32-85.65-37.42c4.24-1.06,8.54-2.14,13.11-3.16,2.23-.53,4.63-1,7-1.49s4.8-.94,7.36-1.32,5.17-.74,7.8-1.07,5.49-.51,8.49-.57a80,80,0,0,1,19.47,1.57c1.79.4,3.66.92,5.47,1.44.89.23,1.85.6,2.79,1s1.88.72,2.82,1.1l1.39.57,1.41.7c.94.47,1.87,1,2.8,1.47A44.08,44.08,0,0,1-.38-33.8l1.3.93c.42.31.91.66,1.18.91L4-30.36l1.87,1.62L7.6-27.08C8.76-26,9.9-24.84,10.91-23.7s2.12,2.29,3,3.44A112.55,112.55,0,0,1,23.77-6.48C26.53-2,28.89,2.41,31,6.61c4.3,8.41,7.79,16.11,11.23,22.48a84.29,84.29,0,0,0,4.92,8.2,26.77,26.77,0,0,0,4,4.75,6.94,6.94,0,0,0,2.25,1.43,5,5,0,0,0,1.11.29,1.57,1.57,0,0,1,.37.05l.19,0a1.66,1.66,0,0,0,.27,0l.35,0,2.83.24c7.6.61,15.88.88,24.6,1.26s17.94.85,27.53,1.93A182.9,182.9,0,0,1,140.43,53a133.26,133.26,0,0,1,29.92,12.46Z"/><path class="cls-2" d="M-1.25,9A4.9,4.9,0,0,0,1,9.65a4,4,0,0,0,2.27-.56A3.8,3.8,0,0,0,4.87,7.38a4.81,4.81,0,0,0,.41-2.44,6.11,6.11,0,0,0-1-2.71A6.17,6.17,0,0,0,2.18.17,4.62,4.62,0,0,0-.23-.49,3.74,3.74,0,0,0-2.44.25,4.09,4.09,0,0,0-3.85,2.1a5,5,0,0,0-.28,2.41A6.13,6.13,0,0,0-3.15,7,5.78,5.78,0,0,0-1.25,9Z"/><path class="cls-2" d="M-.48,37.74,27.7,24l-2.18-4.48L-2.66,33.26Zm33.1,3.84,3.31-2c-1.51-2.47-3-5.17-4.47-8S28.52,25.67,27,22.57l-3.49,1.7c1.51,3.1,3,6.14,4.49,9S31,39,32.62,41.58ZM20.5,47.23l3.19-1.88c-3.15-5.4-6-11.1-8.78-16.88l-3.33,1.62C14.39,35.88,17.25,41.66,20.5,47.23ZM9.32,56.14l3.31-2c-2-3.3-3.82-6.6-5.5-9.85S3.86,37.77,2.32,34.6l-3.5,1.7C.37,39.48,2,42.73,3.68,46S7.22,52.73,9.32,56.14Z"/><path class="cls-2" d="M17.48,67.54,37.53,50.31c1-1.35,2-2.72,3.07-4l-.78-1c-.26-.34-.52-.72-.78-1.07L13.71,62.73C14.84,64.34,16.17,66,17.48,67.54ZM42.9,78.27A33.84,33.84,0,0,1,38,61.53,44.22,44.22,0,0,1,40.6,46.28c-1.55,1.08-3.11,2.13-4.69,3.18A45.23,45.23,0,0,0,34,65.69a38.11,38.11,0,0,0,6.23,17.7C41.19,81.69,42.06,80,42.9,78.27Zm2.17,6.45,6.81-30.6c-.39-.12-.8-.18-1.19-.29s-.75-.28-1.13-.4L39.94,78.34c0,1.66.15,3.34.33,5A41.23,41.23,0,0,0,45.07,84.72Z"/><path class="cls-2" d="M68.65,86.06a9.61,9.61,0,0,0,4.17-3.39,9.9,9.9,0,0,0,1.69-5.35l.9-21.54-4.9-.21-1,21.75a6.12,6.12,0,0,1-1,3.24,5.31,5.31,0,0,1-2.38,1.9,7.38,7.38,0,0,1-3.39.49,8.47,8.47,0,0,1-3.41-.89,6.53,6.53,0,0,1-2.45-2.12l-3.84,2.44A11,11,0,0,0,57,85.59,14.4,14.4,0,0,0,62.69,87,12.73,12.73,0,0,0,68.65,86.06Z"/><path class="cls-2" d="M105.38,88.25a19.26,19.26,0,0,0,5.92-2.76A17.35,17.35,0,0,0,115.8,81a14.94,14.94,0,0,0,2.42-6,13.43,13.43,0,0,0-.42-6.47,15.23,15.23,0,0,0-3.4-5.71,18.29,18.29,0,0,0-5.85-4.17,22,22,0,0,0-7.62-1.94,21.55,21.55,0,0,0-7.7.7A17.87,17.87,0,0,0,87,60.49a15.44,15.44,0,0,0-4.19,4.94A14.83,14.83,0,0,0,82.29,78,16.71,16.71,0,0,0,86,83.35a19,19,0,0,0,5.61,3.78,21,21,0,0,0,6.9,1.72A20.43,20.43,0,0,0,105.38,88.25ZM93.56,83.52a13.31,13.31,0,0,1-4-2.75,11.23,11.23,0,0,1-2.53-4,12.07,12.07,0,0,1-.75-4.9,11.18,11.18,0,0,1,2-6.14,11.54,11.54,0,0,1,5-4,15,15,0,0,1,7.25-1,16.51,16.51,0,0,1,5.56,1.37,12.93,12.93,0,0,1,4.15,3,10.77,10.77,0,0,1,2.42,4.14,11.08,11.08,0,0,1,.37,4.92,11.72,11.72,0,0,1-2.55,6,12.44,12.44,0,0,1-5.06,3.74,14.66,14.66,0,0,1-6.8.94A16.1,16.1,0,0,1,93.56,83.52Z"/><path class="cls-2" d="M135.44,82.06c.8-.56,1.63-1.14,2.45-1.68l2.49-1.57c1.68-1,3.42-2.06,5.2-3.06S149.17,73.86,151,73s3.76-1.73,5.72-2.56l-6.06-2.67c-3.05,1.52-6,3.19-8.82,4.85l-2.09,1.27-2.07,1.37q-2,1.38-4,2.79l2.53.75c-1.14-3-2.38-6-3.77-9s-2.88-5.91-4.48-8.89l-6.3-1.2a149.62,149.62,0,0,1,10.73,21.5Zm-3,12.4,4.77-14.79-4.82-1.44-4.15,15Z"/><path d="M1397.33,116.33a25.38,25.38,0,0,1-2.64-2c-.84-.7-1.68-1.4-2.5-2.12a31.6,31.6,0,0,1-2.31-2.32c-.75-.79-1.51-1.59-2.21-2.41s-1.31-1.71-2-2.57a27.15,27.15,0,0,1-1.8-2.62,50.8,50.8,0,0,1-3-5.4,73.2,73.2,0,0,1-6.22-21.06A147.92,147.92,0,0,1,1373.28,57c-.13-5.89,0-11.55-.23-16.54-.09-2.58-.11-5.16-.24-7.73l-.59-7.72c-.1-1.28-.18-2.57-.3-3.85l-.48-3.85-1-7.68L1369.18,2l-.65-3.82c-.25-1.27-.55-2.53-.82-3.79l-1.66-7.58c-.62-2.51-1.33-5-2-7.5a260.76,260.76,0,0,0-23.22-57.43c-1.16-2.31-2.56-4.49-3.86-6.72s-2.59-4.48-4-6.65c-2.88-4.28-5.56-8.71-8.7-12.82-1.53-2.08-3-4.2-4.57-6.25l-4.84-6c-.81-1-1.6-2-2.42-3l-2.57-2.9-5.11-5.8,26.31-24.37,5.86,6.64,2.93,3.32c.94,1.13,1.85,2.29,2.78,3.44l5.52,6.9c1.79,2.35,3.49,4.76,5.23,7.13,3.56,4.71,6.64,9.73,9.91,14.63,1.6,2.47,3,5,4.56,7.56s3.06,5,4.39,7.66a296.87,296.87,0,0,1,26.4,65.27c.75,2.85,1.55,5.68,2.25,8.53L1402.8-13c.31,1.44.64,2.87.93,4.31l.75,4.36,1.49,8.7,1.09,8.78.53,4.38c.15,1.47.24,2.94.36,4.41l.66,8.82c.16,2.95.19,5.9.29,8.85.24,6.05.11,11.46.23,16.62a111.39,111.39,0,0,0,1,14.25,37.51,37.51,0,0,0,3,10.66,16.7,16.7,0,0,0,1,1.85,3.86,3.86,0,0,0,.55.78c.19.25.37.5.53.76l.62.62a5.05,5.05,0,0,0,.59.63c.24.17.46.35.68.54a2.51,2.51,0,0,0,.65.51Z"/><path class="cls-2" d="M1377.83,1l19.94-3.52-.56-3.29-19.9,3.75Zm19.41,9.56,2.49-.32c-.48-4.64-1.37-9.22-2.14-13.81l-2.47.44C1395.88,1.38,1396.77,5.91,1397.24,10.51Zm-8.62.16,2.37-.32-.39-3.12c-.13-1-.34-2.07-.5-3.1L1389-2.08l-2.36.43,1,6.15c.17,1,.38,2,.51,3.07Zm-8.95,2.3,2.49-.33c-.45-4.4-1.29-8.75-2-13.11l-2.47.44C1378.39,4.3,1379.23,8.6,1379.67,13Z"/><path class="cls-2" d="M1380.57,20.24l17-1.72,3-1.31-.29-2.33-20.12,2.28Zm4.67,13c2.62-2.51,5.16-5.1,7.74-7.77l3.85-4.05c1.28-1.37,2.57-2.76,3.77-4.16l-3.68,0-1.84,2.06-1.93,2-3.85,4q-3.87,3.95-7.74,7.67Zm-3.63,1.93,20.23-.87c0-1.12,0-2.23-.14-3.35l-17.21,1L1381.56,33Z"/><path class="cls-2" d="M1382.43,48.44a6.51,6.51,0,0,0,2.32,2.58,6.41,6.41,0,0,0,3.51.92l13.91-.11V48.67l-14.07,0a3.89,3.89,0,0,1-2.11-.52,3.35,3.35,0,0,1-1.31-1.45,5.39,5.39,0,0,1-.46-2.1,5.07,5.07,0,0,1,.38-2.12,4.29,4.29,0,0,1,1.21-1.61L1384,38.75a6.9,6.9,0,0,0-1.78,2.52,8.19,8.19,0,0,0-.59,3.49A8.44,8.44,0,0,0,1382.43,48.44Z"/><path class="cls-2" d="M1383.73,73.9a12.33,12.33,0,0,0,2.89,3.74,9.67,9.67,0,0,0,3.84,2,8.41,8.41,0,0,0,4.14,0,10.37,10.37,0,0,0,3.78-1.82,12,12,0,0,0,2.76-2.94,12,12,0,0,0,1.93-7.91,12.93,12.93,0,0,0-1.09-4.23,12.57,12.57,0,0,0-2.38-3.48,10.59,10.59,0,0,0-3.39-2.35,9.46,9.46,0,0,0-4.08-.82,9.17,9.17,0,0,0-4,1,10.09,10.09,0,0,0-3.26,2.7,11.31,11.31,0,0,0-2.06,4.1,14,14,0,0,0-.43,5.1A14.36,14.36,0,0,0,1383.73,73.9Zm1.51-9A8.52,8.52,0,0,1,1386.7,62a6.81,6.81,0,0,1,2.4-1.92,8.08,8.08,0,0,1,7.18.2,7.86,7.86,0,0,1,2.88,2.79,9.18,9.18,0,0,1,1.3,4.08,9.07,9.07,0,0,1-.21,3.24,8.33,8.33,0,0,1-1.24,2.7,8.23,8.23,0,0,1-2.15,2.09,7.93,7.93,0,0,1-2.94,1.2,6.84,6.84,0,0,1-4.17-.38,7.78,7.78,0,0,1-3.26-2.75,10.13,10.13,0,0,1-1.54-4.64A10.6,10.6,0,0,1,1385.24,64.92Z"/><path class="cls-2" d="M1397.11,91.35c1.29.21,2.54.36,3.76.45a28.2,28.2,0,0,0,3.68,0,25.71,25.71,0,0,0,6.79-1.31l-.8-.86a6.07,6.07,0,0,1-.78-.89,29.7,29.7,0,0,1-11.55,0,10.33,10.33,0,0,0,.75,1.44,28.65,28.65,0,0,1,1.38-2.7c.49-.87,1-1.71,1.53-2.51a45.56,45.56,0,0,1,3.5-4.6c-.31-.91-.55-1.9-.84-2.84a53.7,53.7,0,0,0-4.57,5.53c-.7,1-1.39,2-2,3.11s-1.2,2.16-1.76,3.32A15.69,15.69,0,0,0,1397.11,91.35ZM1390.32,96l8.68-5c-.26-.45-.55-.89-.78-1.36l-.67-1.42-9.08,4.27.85,1.79C1389.62,94.86,1390,95.44,1390.32,96Z"/><path d="M1616-38.74a451.85,451.85,0,0,0-95.25,84.24c-6.88,8.11-13.54,16.41-19.8,25-6.29,8.42-12.66,18.17-21.28,27.75a98.2,98.2,0,0,1-15,13.63c-.73.52-1.42,1-2.18,1.54l-2.38,1.53c-.79.52-1.61,1-2.43,1.43s-1.63.92-2.47,1.34c-1.68.8-3.35,1.65-5.1,2.32-.87.35-1.73.72-2.61,1l-2.68.9c-.88.31-1.8.54-2.72.79s-1.83.5-2.76.7c-1.89.37-3.75.79-5.7,1a57.18,57.18,0,0,1-12,.35,53.28,53.28,0,0,1-12.45-2.49c-1-.35-2.06-.77-3.09-1.18l-1.53-.63-1.49-.75c-1-.51-2-1-3-1.58s-1.89-1.22-2.83-1.84l20.46-29.46c.22.14.43.28.64.44s.48.22.71.36l.34.2.4.13.77.32a18.37,18.37,0,0,0,3.78.73,21.84,21.84,0,0,0,4.59-.16c.8,0,1.64-.29,2.46-.42.42-.08.84-.23,1.26-.33a11.91,11.91,0,0,0,1.26-.36l1.25-.42c.42-.14.83-.33,1.24-.49.85-.3,1.63-.75,2.45-1.11.4-.19.78-.43,1.17-.64s.79-.42,1.15-.67l1.11-.71c.38-.25.8-.58,1.2-.86a62.45,62.45,0,0,0,9.48-8.69c6.23-6.86,12.1-15.62,19-24.93s14-18.25,21.38-27a487.7,487.7,0,0,1,102.85-91Z"/><path class="cls-2" d="M1414,106.07a2.48,2.48,0,0,0,1.45-.6,2.61,2.61,0,0,0,.83-1.26,2.76,2.76,0,0,0,0-1.48,3.83,3.83,0,0,0-.65-1.31,2.79,2.79,0,0,0-1.24-.92,3.82,3.82,0,0,0-1.52-.27,3.22,3.22,0,0,0-1.41.43,2.91,2.91,0,0,0-1,1.07,2.41,2.41,0,0,0-.33,1.45,2.77,2.77,0,0,0,.58,1.47,3.11,3.11,0,0,0,1.49,1.11A3.89,3.89,0,0,0,1414,106.07Z"/><path class="cls-2" d="M1432.26,115.85l-2.51-20.09-1.19.15-1.18,0,1,20.23,2-.11Zm13.49-3.44-.91-2.34a54,54,0,0,1-14.07,3.43l.25,2.5A56.9,56.9,0,0,0,1445.75,112.41Z"/><path class="cls-2" d="M1453.41,108.79l-9.92-17.65-1.1.61c-.37.2-.75.36-1.13.55l8.78,18.24c.57-.28,1.15-.54,1.71-.83Zm-.06-21.69-1.65-1.89c-.72.63-1.44,1.26-2.19,1.82l-1.1.88-1.14.81c-.75.58-1.49,1-2.22,1.49s-1.5.88-2.26,1.32l1.18,2.21c.81-.47,1.65-.88,2.41-1.4s1.56-1,2.35-1.58l1.19-.85,1.15-.91C1451.85,88.41,1452.6,87.76,1453.35,87.1Zm4.91,7.09-1.55-1.82a55.85,55.85,0,0,1-9.82,6.82l1.13,2.11A58.34,58.34,0,0,0,1458.26,94.19Zm6.9,6.15-1.66-1.89c-.93.81-1.86,1.63-2.85,2.39l-1.46,1.15-1.52,1.1c-1,.75-2.08,1.44-3.17,2.13s-2.22,1.31-3.34,1.94l1.19,2.21c1.17-.65,2.36-1.27,3.48-2s2.28-1.45,3.3-2.22l1.57-1.14,1.52-1.19C1463.24,102,1464.2,101.17,1465.16,100.34Z"/><path class="cls-2" d="M1470,95.72a138.94,138.94,0,0,0-7.19-17.52l-.73.85c5.93,1.84,12.1,3.35,18.3,4.65.75-1,1.48-1.92,2.2-2.89a221.63,221.63,0,0,1-21.81-5c-.46.54-.91,1.1-1.38,1.61a123.6,123.6,0,0,1,7.9,21C1468.28,97.5,1469.16,96.61,1470,95.72Zm6-13.92-1.88-1.47c-2.6,3.31-5.33,6.55-8.28,9.62l1.73,1.66A129,129,0,0,0,1476.09,81.8Z"/><path class="cls-2" d="M1486.73,75.22l-16.41-11.86-1.85,2.54,16.33,12Zm-3.92-9.63a10.19,10.19,0,0,0,1.72-3.6,6,6,0,0,0-.07-3.26,5.1,5.1,0,0,0-1.88-2.51,4.88,4.88,0,0,0-2.92-1,6.18,6.18,0,0,0-3.21.91,9.89,9.89,0,0,0-2.93,2.8l-3.81,5.28,1.94,1.41,3.75-5.21a4.76,4.76,0,0,1,2.67-2,3,3,0,0,1,2.62.51,3,3,0,0,1,1.32,2.36,5.13,5.13,0,0,1-1.15,3.14l-3.76,5.21,1.87,1.35Zm12.41-2c-4.56.53-9.15,1.15-13.72,1.83l-1,3c4.13-.56,8.26-1.15,12.37-1.64Z"/><path class="cls-2" d="M1499.05,58.45l-13.56-10.37-3.12-1.15L1481,48.78,1497.15,61C1497.79,60.13,1498.4,59.27,1499.05,58.45Zm5.44-12.8c-7.37.2-14.65.71-22.12,1.28l2.65,2.54c3.7-.28,7.4-.51,11.07-.71l5.48-.28,5.5-.18Zm4,.94L1492.8,33.76l-2.08,2.55,13.42,10.83,2.93,1.16Z"/><path class="cls-2" d="M1513.3,28.27a2.91,2.91,0,0,0,0-1.55,2.57,2.57,0,0,0-.79-1.28,2.52,2.52,0,0,0-1.36-.63,3.21,3.21,0,0,0-1.55.19,3.66,3.66,0,0,0-1.46,1,3.54,3.54,0,0,0-.85,1.59,3.13,3.13,0,0,0,0,1.58,2.49,2.49,0,0,0,.8,1.26,2.64,2.64,0,0,0,1.37.62,2.9,2.9,0,0,0,1.55-.22,3.89,3.89,0,0,0,1.42-1.06A3.62,3.62,0,0,0,1513.3,28.27Z"/><path class="cls-2" d="M1530.71,21.36,1516,7.42l-2.25,2.4,14.78,13.84ZM1526.65.08l-1.77-1.77-4.81,4.91c-1.61,1.63-3.21,3.28-4.76,5l1.82,1.72c1.55-1.67,3.14-3.31,4.74-4.93Zm5.4,6.76-1.7-1.69L1526,9.63l-2.19,2.24-2.14,2.28,1.73,1.65,2.14-2.28,2.18-2.23Zm7.26,5.68-1.77-1.78-4.7,4.79c-1.57,1.59-3.13,3.19-4.64,4.84l1.82,1.72c1.51-1.64,3.06-3.23,4.62-4.81Z"/><path class="cls-2" d="M1544.63,7.32,1532.77-4.95l-2.91-1.61-1.65,1.62,14.17,14.46Zm7.26-11.89c-3.63-.4-7.27-.77-11-1.11l-5.55-.49-5.53-.39,2.24,2.91c7.35.49,14.75,1.27,21.94,2.09Zm3.8,1.54-13.58-15c-.82.73-1.64,1.46-2.44,2.21l11.66,12.71L1554-1.56Z"/></svg>