<svg width="1444" height="1582" viewBox="0 0 1444 1582" fill="none" xmlns="http://www.w3.org/2000/svg">
<path d="M1444 578C1444 880.652 1198.65 1126 896 1126C593.348 1126 348 880.652 348 578C348 275.348 593.348 30 896 30C1198.65 30 1444 275.348 1444 578Z" fill="#232323"/>
<path d="M746 972C746 1169.72 585.718 1330 388 1330C190.282 1330 30 1169.72 30 972C30 774.282 190.282 614 388 614C585.718 614 746 774.282 746 972Z" fill="#232323"/>
<path d="M1397 548C1397 841.263 1159.26 1079 866 1079C813.531 1079 762.839 1071.39 714.969 1057.21C726.676 1020.91 733 982.195 733 942C733 734.893 565.107 567 358 567C350.398 567 342.848 567.226 335.358 567.672C335.12 561.144 335 554.586 335 548C335 254.737 572.737 17 866 17C1159.26 17 1397 254.737 1397 548ZM17 942C17 772.093 141.264 631.209 303.867 605.273C325.838 823.527 472.024 1005.13 670.66 1078.32C618.058 1198.8 497.862 1283 358 1283C169.671 1283 17 1130.33 17 942ZM699 942C699 978.455 693.279 1013.57 682.687 1046.51C495.796 977.762 358.251 806.919 337.671 601.596C344.397 601.201 351.175 601 358 601C546.329 601 699 753.671 699 942Z" fill="url(#paint0_linear_404_14)" stroke="#202020" stroke-width="34"/>
<circle cx="854" cy="1376" r="206" fill="#232323"/>
<circle cx="834" cy="1346" r="189" fill="url(#paint1_linear_404_14)" stroke="#202020" stroke-width="34"/>
<defs>
<linearGradient id="paint0_linear_404_14" x1="1013.5" y1="525.5" x2="3.04381e-05" y2="1397" gradientUnits="userSpaceOnUse">
<stop stop-color="#5DC6D2"/>
<stop offset="1" stop-color="#26575C"/>
</linearGradient>
<linearGradient id="paint1_linear_404_14" x1="951" y1="1233.5" x2="579" y2="1582.5" gradientUnits="userSpaceOnUse">
<stop stop-color="#5CC6D1"/>
<stop offset="0.800909" stop-color="#2F656B"/>
</linearGradient>
</defs>
</svg>
